G75*
%MOIN*%
%OFA0B0*%
%FSLAX26Y26*%
%IPPOS*%
%LPD*%
%AMOC8*
5,1,8,0,0,1.08239X$1,22.5*
%
%ADD10C,0.065000*%
%ADD11C,0.181000*%
%ADD12OC8,0.181000*%
%ADD13C,0.078000*%
%ADD14C,0.055118*%
%ADD15C,0.074000*%
%ADD16C,0.074000*%
%ADD17C,0.050000*%
%ADD18C,0.070000*%
%ADD19R,0.039622X0.039622*%
D10*
X00901575Y01625000D03*
X01098425Y01625000D03*
X01450000Y02101575D03*
X01450000Y02298425D03*
X02114075Y01650000D03*
X02310925Y01650000D03*
X02612500Y02126575D03*
X02612500Y02323425D03*
X03314075Y01637500D03*
X03510925Y01637500D03*
X00262500Y02101575D03*
X00262500Y02298425D03*
D11*
X00287500Y00462500D03*
D12*
X00687500Y00462500D03*
D13*
X00575000Y01637500D03*
X00575000Y01850000D03*
X00812500Y01862500D03*
X01212500Y01862500D03*
X01450000Y01862500D03*
X01437500Y01662500D03*
X01837500Y01662500D03*
X01850000Y01862500D03*
X02025000Y01850000D03*
X02425000Y01850000D03*
X02612500Y01862500D03*
X02612500Y01662500D03*
X03012500Y01662500D03*
X03012500Y01862500D03*
X03212500Y01862500D03*
X03612500Y01862500D03*
X00175000Y01850000D03*
X00175000Y01637500D03*
D14*
X00837500Y01237500D03*
X00937500Y01237500D03*
X01037500Y01237500D03*
X01137500Y01237500D03*
X01137500Y00937500D03*
X01037500Y00937500D03*
X00937500Y00937500D03*
X00837500Y00937500D03*
X01650000Y00925000D03*
X01750000Y00925000D03*
X01850000Y00925000D03*
X01950000Y00925000D03*
X01950000Y01225000D03*
X01850000Y01225000D03*
X01750000Y01225000D03*
X01650000Y01225000D03*
X02450000Y01200000D03*
X02550000Y01200000D03*
X02650000Y01200000D03*
X02750000Y01200000D03*
X02750000Y00900000D03*
X02650000Y00900000D03*
X02550000Y00900000D03*
X02450000Y00900000D03*
D15*
X02650000Y00374500D02*
X02650000Y00300500D01*
X02850000Y00300500D02*
X02850000Y00374500D01*
X03050000Y00374500D02*
X03050000Y00300500D01*
X03413000Y00725000D02*
X03487000Y00725000D01*
X03487000Y00925000D02*
X03413000Y00925000D01*
X03413000Y01125000D02*
X03487000Y01125000D01*
X02100000Y00324500D02*
X02100000Y00250500D01*
X02000000Y00250500D02*
X02000000Y00324500D01*
X01900000Y00324500D02*
X01900000Y00250500D01*
X01800000Y00250500D02*
X01800000Y00324500D01*
X01700000Y00324500D02*
X01700000Y00250500D01*
X01600000Y00250500D02*
X01600000Y00324500D01*
X01500000Y00324500D02*
X01500000Y00250500D01*
X01525000Y02563000D02*
X01525000Y02637000D01*
X01625000Y02637000D02*
X01625000Y02563000D01*
X01725000Y02563000D02*
X01725000Y02637000D01*
X02100000Y02649500D02*
X02100000Y02575500D01*
X02200000Y02575500D02*
X02200000Y02649500D01*
X02300000Y02649500D02*
X02300000Y02575500D01*
X02637500Y02575500D02*
X02637500Y02649500D01*
X02737500Y02649500D02*
X02737500Y02575500D01*
X02837500Y02575500D02*
X02837500Y02649500D01*
X03225000Y02649500D02*
X03225000Y02575500D01*
X03325000Y02575500D02*
X03325000Y02649500D01*
X03425000Y02649500D02*
X03425000Y02575500D01*
X01112500Y02563000D02*
X01112500Y02637000D01*
X01012500Y02637000D02*
X01012500Y02563000D01*
X00912500Y02563000D02*
X00912500Y02637000D01*
X00500000Y02637000D02*
X00500000Y02563000D01*
X00400000Y02563000D02*
X00400000Y02637000D01*
X00300000Y02637000D02*
X00300000Y02563000D01*
D16*
X00525000Y02350000D03*
X00525000Y02050000D03*
X00887500Y02200000D03*
X01187500Y02200000D03*
X01800000Y02337500D03*
X02062500Y02175000D03*
X01800000Y02037500D03*
X02362500Y02175000D03*
X02887500Y02050000D03*
X03150000Y02237500D03*
X02887500Y02350000D03*
X03450000Y02237500D03*
D17*
X00045000Y01676005D02*
X00045000Y00045150D01*
X02398011Y00052994D01*
X02390657Y00060348D01*
X02380904Y00069980D01*
X02380817Y00070188D01*
X02380657Y00070348D01*
X02375410Y00083015D01*
X02370088Y00095641D01*
X02370086Y00095867D01*
X02370000Y00096076D01*
X02370000Y00109790D01*
X02367567Y00501468D01*
X02366563Y00504640D01*
X02367481Y00515295D01*
X02367415Y00525989D01*
X02368669Y00529070D01*
X02373706Y00587500D01*
X00983979Y00587500D01*
X00974098Y00586373D01*
X00970166Y00587500D01*
X00966076Y00587500D01*
X00956889Y00591306D01*
X00947328Y00594046D01*
X00944127Y00596592D01*
X00940348Y00598157D01*
X00933316Y00605189D01*
X00925532Y00611379D01*
X00923549Y00614956D01*
X00920657Y00617848D01*
X00916851Y00627036D01*
X00785129Y00864606D01*
X00784490Y00865138D01*
X00778391Y00876760D01*
X00772029Y00888234D01*
X00771935Y00889060D01*
X00771548Y00889796D01*
X00770360Y00902864D01*
X00769240Y00912689D01*
X00764941Y00923067D01*
X00764941Y00951933D01*
X00775987Y00978601D01*
X00796398Y00999013D01*
X00823067Y01010059D01*
X00851933Y01010059D01*
X00878601Y00999013D01*
X00887500Y00990114D01*
X00896398Y00999013D01*
X00923067Y01010059D01*
X00951933Y01010059D01*
X00978601Y00999013D01*
X00987500Y00990114D01*
X00996398Y00999013D01*
X01023067Y01010059D01*
X01051933Y01010059D01*
X01078601Y00999013D01*
X01094571Y00983043D01*
X01096745Y00985217D01*
X01104712Y00991005D01*
X01104891Y00991097D01*
X01010745Y01091968D01*
X00993924Y01085000D01*
X00616076Y01085000D01*
X00590348Y01095657D01*
X00465667Y01220338D01*
X00467500Y01215913D01*
X00467500Y01184087D01*
X00455321Y01154684D01*
X00432816Y01132179D01*
X00408674Y01122179D01*
X00357500Y01071005D01*
X00357500Y00578547D01*
X00370699Y00570927D01*
X00395927Y00545699D01*
X00413766Y00514801D01*
X00423000Y00480339D01*
X00423000Y00444661D01*
X00413766Y00410199D01*
X00395927Y00379301D01*
X00370699Y00354073D01*
X00339801Y00336234D01*
X00305339Y00327000D01*
X00269661Y00327000D01*
X00235199Y00336234D01*
X00204301Y00354073D01*
X00179073Y00379301D01*
X00161234Y00410199D01*
X00152000Y00444661D01*
X00152000Y00480339D01*
X00161234Y00514801D01*
X00179073Y00545699D01*
X00204301Y00570927D01*
X00217500Y00578547D01*
X00217500Y01113924D01*
X00228157Y01139652D01*
X00309679Y01221174D01*
X00319679Y01245316D01*
X00342184Y01267821D01*
X00371587Y01280000D01*
X00403413Y01280000D01*
X00407838Y01278167D01*
X00135348Y01550657D01*
X00115657Y01570348D01*
X00110211Y01583495D01*
X00103788Y01589918D01*
X00091000Y01620791D01*
X00091000Y01630005D01*
X00045000Y01676005D01*
X00045000Y01649951D02*
X00071054Y01649951D01*
X00045000Y01599953D02*
X00099632Y01599953D01*
X00136051Y01549954D02*
X00045000Y01549954D01*
X00045000Y01499956D02*
X00186049Y01499956D01*
X00236048Y01449957D02*
X00045000Y01449957D01*
X00045000Y01399959D02*
X00286046Y01399959D01*
X00336045Y01349960D02*
X00045000Y01349960D01*
X00045000Y01299962D02*
X00386043Y01299962D01*
X00324326Y01249963D02*
X00045000Y01249963D01*
X00045000Y01199965D02*
X00288470Y01199965D01*
X00238471Y01149966D02*
X00045000Y01149966D01*
X00045000Y01099968D02*
X00217500Y01099968D01*
X00217500Y01049969D02*
X00045000Y01049969D01*
X00045000Y00999970D02*
X00217500Y00999970D01*
X00217500Y00949972D02*
X00045000Y00949972D01*
X00045000Y00899973D02*
X00217500Y00899973D01*
X00217500Y00849975D02*
X00045000Y00849975D01*
X00045000Y00799976D02*
X00217500Y00799976D01*
X00217500Y00749978D02*
X00045000Y00749978D01*
X00045000Y00699979D02*
X00217500Y00699979D01*
X00217500Y00649981D02*
X00045000Y00649981D01*
X00045000Y00599982D02*
X00217500Y00599982D01*
X00183358Y00549984D02*
X00045000Y00549984D01*
X00045000Y00499985D02*
X00157264Y00499985D01*
X00152000Y00449987D02*
X00045000Y00449987D01*
X00045000Y00399988D02*
X00167129Y00399988D01*
X00211374Y00349990D02*
X00045000Y00349990D01*
X00045000Y00299991D02*
X01428000Y00299991D01*
X01428000Y00287500D02*
X01435000Y00287500D01*
X01435000Y00287499D01*
X01428000Y00287499D01*
X01428000Y00245781D01*
X01429232Y00236423D01*
X01431675Y00227307D01*
X01435287Y00218587D01*
X01440006Y00210413D01*
X01445751Y00202925D01*
X01452425Y00196251D01*
X01459913Y00190506D01*
X01468087Y00185787D01*
X01476807Y00182175D01*
X01485923Y00179732D01*
X01495281Y00178500D01*
X01499999Y00178500D01*
X01499999Y00222500D01*
X01500000Y00222500D01*
X01500000Y00178500D01*
X01504719Y00178500D01*
X01514077Y00179732D01*
X01523193Y00182175D01*
X01531913Y00185787D01*
X01540087Y00190506D01*
X01542317Y00192217D01*
X01553551Y00180984D01*
X01583689Y00168500D01*
X01616311Y00168500D01*
X01646449Y00180984D01*
X01650000Y00184535D01*
X01653551Y00180984D01*
X01683689Y00168500D01*
X01716311Y00168500D01*
X01746449Y00180984D01*
X01750000Y00184535D01*
X01753551Y00180984D01*
X01783689Y00168500D01*
X01816311Y00168500D01*
X01846449Y00180984D01*
X01850000Y00184535D01*
X01853551Y00180984D01*
X01883689Y00168500D01*
X01916311Y00168500D01*
X01946449Y00180984D01*
X01950000Y00184535D01*
X01953551Y00180984D01*
X01983689Y00168500D01*
X02016311Y00168500D01*
X02046449Y00180984D01*
X02050000Y00184535D01*
X02053551Y00180984D01*
X02083689Y00168500D01*
X02116311Y00168500D01*
X02146449Y00180984D01*
X02169516Y00204051D01*
X02182000Y00234189D01*
X02182000Y00332500D01*
X02190913Y00332500D01*
X02220316Y00344679D01*
X02242821Y00367184D01*
X02255000Y00396587D01*
X02255000Y00428413D01*
X02242821Y00457816D01*
X02220316Y00480321D01*
X02190913Y00492500D01*
X02167500Y00492500D01*
X02167500Y00515913D01*
X02155321Y00545316D01*
X02132816Y00567821D01*
X02103413Y00580000D01*
X02071587Y00580000D01*
X02042184Y00567821D01*
X02019679Y00545316D01*
X02019548Y00545000D01*
X01986076Y00545000D01*
X01960348Y00534343D01*
X01950821Y00524816D01*
X01945316Y00530321D01*
X01915913Y00542500D01*
X01884087Y00542500D01*
X01854684Y00530321D01*
X01850000Y00525637D01*
X01845316Y00530321D01*
X01815913Y00542500D01*
X01784087Y00542500D01*
X01754684Y00530321D01*
X01743750Y00519387D01*
X01732816Y00530321D01*
X01703413Y00542500D01*
X01671587Y00542500D01*
X01642184Y00530321D01*
X01619679Y00507816D01*
X01607500Y00478413D01*
X01607500Y00446587D01*
X01617500Y00422445D01*
X01617500Y00406007D01*
X01616311Y00406500D01*
X01583689Y00406500D01*
X01581077Y00405418D01*
X01542500Y00443995D01*
X01542500Y00453413D01*
X01530321Y00482816D01*
X01507816Y00505321D01*
X01478413Y00517500D01*
X01446587Y00517500D01*
X01417184Y00505321D01*
X01394679Y00482816D01*
X01382500Y00453413D01*
X01382500Y00421587D01*
X01394679Y00392184D01*
X01417184Y00369679D01*
X01419987Y00368518D01*
X01434351Y00354154D01*
X01431675Y00347693D01*
X01429232Y00338577D01*
X01428000Y00329219D01*
X01428000Y00287500D01*
X01428000Y00249993D02*
X00045000Y00249993D01*
X00045000Y00199994D02*
X01448682Y00199994D01*
X01499999Y00199994D02*
X01500000Y00199994D01*
X01500000Y00287500D02*
X00862500Y00287500D01*
X00687500Y00462500D01*
X00687500Y00975000D01*
X00675000Y00987500D01*
X00675000Y01075000D01*
X00737500Y01037500D02*
X00687500Y00987500D01*
X00687500Y00975000D01*
X00737500Y01037500D02*
X01037500Y01037500D01*
X01137500Y00937500D01*
X01137500Y00925000D01*
X01096609Y00999970D02*
X01076289Y00999970D01*
X01049944Y01049969D02*
X00357500Y01049969D01*
X00357500Y00999970D02*
X00798711Y00999970D01*
X00764941Y00949972D02*
X00357500Y00949972D01*
X00357500Y00899973D02*
X00770623Y00899973D01*
X00840000Y00910000D02*
X00837500Y00937500D01*
X00840000Y00910000D02*
X00980000Y00657500D01*
X02450000Y00657500D01*
X02450000Y00900000D01*
X02212500Y00900000D01*
X02170000Y01015000D02*
X01995000Y00752500D01*
X01412500Y00750000D01*
X01362500Y00815000D01*
X01365000Y00815000D01*
X01015000Y01190000D01*
X00980000Y01155000D01*
X00630000Y01155000D01*
X00175000Y01610000D01*
X00175000Y01637500D01*
X00175000Y01645000D01*
X00070000Y01750000D01*
X00070000Y02030000D01*
X00245000Y02205000D01*
X00245000Y02275000D01*
X00262500Y02298425D01*
X00280000Y02275000D01*
X00315000Y02240000D01*
X00700000Y02240000D01*
X01050000Y01890000D01*
X01190000Y01890000D01*
X01212500Y01862500D01*
X01268741Y01799947D02*
X01410345Y01799947D01*
X01408800Y01800839D02*
X01417200Y01795989D01*
X01426162Y01792277D01*
X01435532Y01789766D01*
X01445150Y01788500D01*
X01449999Y01788500D01*
X01449999Y01862499D01*
X01450000Y01862499D01*
X01450000Y01788500D01*
X01454850Y01788500D01*
X01464468Y01789766D01*
X01470000Y01791249D01*
X01470000Y01739959D01*
X01454209Y01746500D01*
X01420791Y01746500D01*
X01389918Y01733712D01*
X01371206Y01715000D01*
X01121324Y01715000D01*
X01108736Y01715477D01*
X01107449Y01715000D01*
X01106076Y01715000D01*
X01094437Y01710179D01*
X01082623Y01705801D01*
X01081616Y01704868D01*
X01080348Y01704343D01*
X01075320Y01699315D01*
X01054525Y01690701D01*
X01032724Y01668900D01*
X01025224Y01650793D01*
X01003157Y01628727D01*
X00992500Y01602999D01*
X00992500Y01540055D01*
X00987064Y01526931D01*
X00942598Y01571397D01*
X00946176Y01574142D01*
X00952433Y01580399D01*
X00957819Y01587418D01*
X00962243Y01595081D01*
X00965630Y01603256D01*
X00967920Y01611803D01*
X00969075Y01620576D01*
X00969075Y01624999D01*
X00901576Y01624999D01*
X00901576Y01625000D01*
X00969075Y01625000D01*
X00969075Y01629424D01*
X00967920Y01638197D01*
X00965630Y01646744D01*
X00962243Y01654918D01*
X00957819Y01662581D01*
X00952433Y01669601D01*
X00946176Y01675858D01*
X00939156Y01681244D01*
X00931493Y01685669D01*
X00923319Y01689055D01*
X00914772Y01691345D01*
X00905999Y01692500D01*
X00901575Y01692500D01*
X00901575Y01625001D01*
X00901574Y01625001D01*
X00901574Y01692500D01*
X00897150Y01692500D01*
X00888378Y01691345D01*
X00879831Y01689055D01*
X00871656Y01685669D01*
X00863993Y01681244D01*
X00856973Y01675858D01*
X00850717Y01669601D01*
X00847971Y01666023D01*
X00805000Y01708995D01*
X00805000Y01788849D01*
X00807650Y01788500D01*
X00812499Y01788500D01*
X00812499Y01862499D01*
X00812500Y01862499D01*
X00812500Y01788500D01*
X00817350Y01788500D01*
X00826968Y01789766D01*
X00836337Y01792277D01*
X00845300Y01795989D01*
X00853700Y01800839D01*
X00861396Y01806744D01*
X00868255Y01813604D01*
X00874161Y01821300D01*
X00879011Y01829700D01*
X00882723Y01838662D01*
X00885234Y01848032D01*
X00886500Y01857650D01*
X00886500Y01862499D01*
X00812501Y01862499D01*
X00812501Y01862500D01*
X00886500Y01862500D01*
X00886500Y01867350D01*
X00885234Y01876968D01*
X00882723Y01886337D01*
X00879011Y01895300D01*
X00874161Y01903700D01*
X00868255Y01911396D01*
X00861396Y01918255D01*
X00853700Y01924161D01*
X00845300Y01929011D01*
X00836337Y01932723D01*
X00826968Y01935234D01*
X00817350Y01936500D01*
X00812500Y01936500D01*
X00812500Y01862501D01*
X00812499Y01862501D01*
X00812499Y01936500D01*
X00807650Y01936500D01*
X00798032Y01935234D01*
X00788662Y01932723D01*
X00779700Y01929011D01*
X00771300Y01924161D01*
X00763604Y01918255D01*
X00756744Y01911396D01*
X00750839Y01903700D01*
X00750640Y01903355D01*
X00607000Y02046995D01*
X00607000Y02066311D01*
X00594516Y02096449D01*
X00571449Y02119516D01*
X00541311Y02132000D01*
X00508689Y02132000D01*
X00478551Y02119516D01*
X00455484Y02096449D01*
X00443000Y02066311D01*
X00443000Y02035995D01*
X00331720Y02147274D01*
X00324811Y02155550D01*
X00321942Y02157053D01*
X00319652Y02159343D01*
X00310572Y02163104D01*
X00306400Y02167276D01*
X00305326Y02167721D01*
X00306270Y02170000D01*
X00671005Y02170000D01*
X01010348Y01830657D01*
X01036076Y01820000D01*
X01139183Y01820000D01*
X01141288Y01814918D01*
X01164918Y01791288D01*
X01195791Y01778500D01*
X01229209Y01778500D01*
X01260082Y01791288D01*
X01283712Y01814918D01*
X01296500Y01845791D01*
X01296500Y01879209D01*
X01283712Y01910082D01*
X01260082Y01933712D01*
X01236784Y01943362D01*
X01235360Y01945103D01*
X01232193Y01946802D01*
X01229652Y01949343D01*
X01220013Y01953335D01*
X01210820Y01958267D01*
X01207244Y01958625D01*
X01203924Y01960000D01*
X01193491Y01960000D01*
X01183110Y01961038D01*
X01179670Y01960000D01*
X01078995Y01960000D01*
X00915961Y02123033D01*
X00933949Y02130484D01*
X00948748Y02145282D01*
X00949652Y02145657D01*
X00955179Y02151185D01*
X00961581Y02155672D01*
X00964931Y02160936D01*
X00969343Y02165348D01*
X00972335Y02172570D01*
X00976532Y02179166D01*
X00977612Y02185311D01*
X00980000Y02191076D01*
X00980000Y02198894D01*
X00981353Y02206593D01*
X00980000Y02212684D01*
X00980000Y02281005D01*
X01159652Y02460657D01*
X01179343Y02480348D01*
X01190000Y02506076D01*
X01190000Y02535825D01*
X01194500Y02546689D01*
X01194500Y02653311D01*
X01182016Y02683449D01*
X01158949Y02706516D01*
X01128811Y02719000D01*
X01096189Y02719000D01*
X01066051Y02706516D01*
X01062500Y02702965D01*
X01058949Y02706516D01*
X01028811Y02719000D01*
X00996189Y02719000D01*
X00966051Y02706516D01*
X00954817Y02695283D01*
X00952587Y02696994D01*
X00944413Y02701713D01*
X00935693Y02705325D01*
X00926577Y02707768D01*
X00917219Y02709000D01*
X00912500Y02709000D01*
X00912500Y02600001D01*
X00912499Y02600001D01*
X00912499Y02709000D01*
X00907781Y02709000D01*
X00898423Y02707768D01*
X00889307Y02705325D01*
X00880587Y02701713D01*
X00872413Y02696994D01*
X00864925Y02691249D01*
X00858251Y02684575D01*
X00852506Y02677087D01*
X00847787Y02668913D01*
X00844175Y02660193D01*
X00841732Y02651077D01*
X00840500Y02641719D01*
X00840500Y02600000D01*
X00912499Y02600000D01*
X00912499Y02599999D01*
X00840500Y02599999D01*
X00840500Y02558281D01*
X00841732Y02548923D01*
X00844175Y02539807D01*
X00847787Y02531087D01*
X00852506Y02522913D01*
X00858251Y02515425D01*
X00864925Y02508751D01*
X00872413Y02503006D01*
X00880587Y02498287D01*
X00889307Y02494675D01*
X00890390Y02494384D01*
X00706005Y02310000D01*
X00597187Y02310000D01*
X00607000Y02333689D01*
X00607000Y02366311D01*
X00595000Y02395281D01*
X00595000Y02576519D01*
X00595164Y02576930D01*
X00595000Y02590430D01*
X00595000Y02603924D01*
X00594830Y02604333D01*
X00594825Y02604776D01*
X00589507Y02617185D01*
X00584343Y02629652D01*
X00584030Y02629965D01*
X00583855Y02630372D01*
X00582000Y02632183D01*
X00582000Y02653311D01*
X00569516Y02683449D01*
X00546449Y02706516D01*
X00516311Y02719000D01*
X00483689Y02719000D01*
X00453551Y02706516D01*
X00450000Y02702965D01*
X00446449Y02706516D01*
X00416311Y02719000D01*
X00383689Y02719000D01*
X00353551Y02706516D01*
X00350000Y02702965D01*
X00346449Y02706516D01*
X00316311Y02719000D01*
X00283689Y02719000D01*
X00253551Y02706516D01*
X00230484Y02683449D01*
X00218000Y02653311D01*
X00218000Y02625351D01*
X00217995Y02625345D01*
X00214378Y02614493D01*
X00210000Y02603924D01*
X00210000Y02601359D01*
X00209189Y02598927D01*
X00210000Y02587516D01*
X00210000Y02355527D01*
X00196799Y02342325D01*
X00185000Y02313841D01*
X00185000Y02313066D01*
X00183680Y02309879D01*
X00180588Y02305740D01*
X00178399Y02297131D01*
X00175000Y02288924D01*
X00175000Y02283757D01*
X00173727Y02278750D01*
X00175000Y02269959D01*
X00175000Y02233995D01*
X00045000Y02103995D01*
X00045000Y02867256D01*
X03704508Y02879456D01*
X03704508Y01869871D01*
X03698656Y01875338D01*
X03696500Y01877495D01*
X03696500Y01879209D01*
X03683712Y01910082D01*
X03660082Y01933712D01*
X03629209Y01946500D01*
X03595791Y01946500D01*
X03564918Y01933712D01*
X03541288Y01910082D01*
X03528500Y01879209D01*
X03528500Y01845791D01*
X03541288Y01814918D01*
X03563231Y01792975D01*
X03560766Y01786403D01*
X03544679Y01770316D01*
X03532500Y01740913D01*
X03532500Y01709087D01*
X03536231Y01700079D01*
X03532669Y01701555D01*
X03524122Y01703845D01*
X03515349Y01705000D01*
X03510926Y01705000D01*
X03510926Y01637501D01*
X03510924Y01637501D01*
X03510924Y01637500D02*
X03510924Y01637499D01*
X03443425Y01637499D01*
X03443425Y01633076D01*
X03444580Y01624303D01*
X03446870Y01615756D01*
X03450256Y01607581D01*
X03454681Y01599918D01*
X03460067Y01592899D01*
X03466324Y01586642D01*
X03473344Y01581255D01*
X03481007Y01576831D01*
X03489181Y01573445D01*
X03497728Y01571155D01*
X03506501Y01570000D01*
X03510924Y01570000D01*
X03510924Y01637499D01*
X03510926Y01637499D01*
X03510926Y01637500D01*
X03578425Y01637500D01*
X03578425Y01641924D01*
X03577270Y01650697D01*
X03576576Y01653289D01*
X03596587Y01645000D01*
X03628413Y01645000D01*
X03657816Y01657179D01*
X03680321Y01679684D01*
X03692500Y01709087D01*
X03692500Y01738973D01*
X03704508Y01770995D01*
X03704508Y00057350D01*
X03007668Y00055027D01*
X03012115Y00059474D01*
X03021293Y00067920D01*
X03021926Y00069285D01*
X03022989Y00070348D01*
X03027761Y00081869D01*
X03033008Y00093184D01*
X03033070Y00094687D01*
X03033646Y00096076D01*
X03033646Y00108547D01*
X03036588Y00179412D01*
X03061716Y00218500D01*
X03066311Y00218500D01*
X03096449Y00230984D01*
X03119516Y00254051D01*
X03130265Y00280000D01*
X03268924Y00280000D01*
X03294652Y00290657D01*
X03314343Y00310348D01*
X03629343Y00625348D01*
X03640000Y00651076D01*
X03640000Y01203924D01*
X03629343Y01229652D01*
X03609652Y01249343D01*
X03395000Y01463995D01*
X03395000Y01609494D01*
X03395195Y01622905D01*
X03395000Y01623395D01*
X03395000Y01623924D01*
X03391575Y01632193D01*
X03391575Y01652916D01*
X03379776Y01681400D01*
X03357975Y01703201D01*
X03329491Y01715000D01*
X03298659Y01715000D01*
X03290000Y01711413D01*
X03290000Y01721005D01*
X03504652Y01935657D01*
X03524343Y01955348D01*
X03535000Y01981076D01*
X03535000Y02192516D01*
X03535497Y02193866D01*
X03535000Y02206390D01*
X03535000Y02218924D01*
X03534449Y02220253D01*
X03534392Y02221692D01*
X03532000Y02226875D01*
X03532000Y02253811D01*
X03519516Y02283949D01*
X03496449Y02307016D01*
X03466311Y02319500D01*
X03433689Y02319500D01*
X03403551Y02307016D01*
X03380484Y02283949D01*
X03368000Y02253811D01*
X03368000Y02221189D01*
X03380484Y02191051D01*
X03395000Y02176534D01*
X03395000Y02023995D01*
X03282399Y01911394D01*
X03260082Y01933712D01*
X03229209Y01946500D01*
X03195791Y01946500D01*
X03164918Y01933712D01*
X03156206Y01925000D01*
X03080000Y01925000D01*
X03080000Y02192219D01*
X03080484Y02191051D01*
X03103551Y02167984D01*
X03133689Y02155500D01*
X03166311Y02155500D01*
X03196449Y02167984D01*
X03219516Y02191051D01*
X03232000Y02221189D01*
X03232000Y02223005D01*
X03469652Y02460657D01*
X03489343Y02480348D01*
X03500000Y02506076D01*
X03500000Y02542290D01*
X03507000Y02559189D01*
X03507000Y02665811D01*
X03494516Y02695949D01*
X03471449Y02719016D01*
X03441311Y02731500D01*
X03408689Y02731500D01*
X03378551Y02719016D01*
X03375000Y02715465D01*
X03371449Y02719016D01*
X03341311Y02731500D01*
X03308689Y02731500D01*
X03278551Y02719016D01*
X03267317Y02707783D01*
X03265087Y02709494D01*
X03256913Y02714213D01*
X03248193Y02717825D01*
X03239077Y02720268D01*
X03229719Y02721500D01*
X03225000Y02721500D01*
X03225000Y02612501D01*
X03224999Y02612501D01*
X03224999Y02721500D01*
X03220281Y02721500D01*
X03210923Y02720268D01*
X03201807Y02717825D01*
X03193087Y02714213D01*
X03184913Y02709494D01*
X03177425Y02703749D01*
X03170751Y02697075D01*
X03165006Y02689587D01*
X03160287Y02681413D01*
X03156675Y02672693D01*
X03154232Y02663577D01*
X03153000Y02654219D01*
X03153000Y02612500D01*
X03224999Y02612500D01*
X03224999Y02612499D01*
X03153000Y02612499D01*
X03153000Y02570781D01*
X03154232Y02561423D01*
X03156675Y02552307D01*
X03160287Y02543587D01*
X03165006Y02535413D01*
X03170751Y02527925D01*
X03177425Y02521251D01*
X03184913Y02515506D01*
X03185926Y02514921D01*
X02981005Y02310000D01*
X02959687Y02310000D01*
X02969500Y02333689D01*
X02969500Y02366311D01*
X02957016Y02396449D01*
X02940000Y02413465D01*
X02940000Y02582522D01*
X02941362Y02588823D01*
X02940000Y02596312D01*
X02940000Y02603924D01*
X02937533Y02609879D01*
X02936380Y02616221D01*
X02932256Y02622619D01*
X02929343Y02629652D01*
X02924785Y02634210D01*
X02921293Y02639628D01*
X02919500Y02640869D01*
X02919500Y02665811D01*
X02907016Y02695949D01*
X02883949Y02719016D01*
X02853811Y02731500D01*
X02821189Y02731500D01*
X02807500Y02725830D01*
X02807500Y02763924D01*
X02796843Y02789652D01*
X02777152Y02809343D01*
X02751424Y02820000D01*
X02723576Y02820000D01*
X02697848Y02809343D01*
X02678157Y02789652D01*
X02667500Y02763924D01*
X02667500Y02725830D01*
X02653811Y02731500D01*
X02621189Y02731500D01*
X02591051Y02719016D01*
X02567984Y02695949D01*
X02555500Y02665811D01*
X02555500Y02619495D01*
X02532848Y02596843D01*
X02460657Y02524652D01*
X02450000Y02498924D01*
X02450000Y02191076D01*
X02460657Y02165348D01*
X02480348Y02145657D01*
X02531539Y02094466D01*
X02532056Y02093330D01*
X02541357Y02084649D01*
X02550348Y02075657D01*
X02551501Y02075180D01*
X02552413Y02074328D01*
X02556781Y02072692D01*
X02568600Y02060873D01*
X02597084Y02049075D01*
X02627916Y02049075D01*
X02656400Y02060873D01*
X02678201Y02082675D01*
X02679704Y02086302D01*
X02730000Y02036005D01*
X02730000Y01603995D01*
X02410348Y01284343D01*
X02390657Y01264652D01*
X02380000Y01238924D01*
X02380000Y01220611D01*
X02377441Y01214433D01*
X02377441Y01185567D01*
X02388487Y01158898D01*
X02408898Y01138487D01*
X02435567Y01127441D01*
X02464433Y01127441D01*
X02491101Y01138487D01*
X02500000Y01147386D01*
X02508898Y01138487D01*
X02535567Y01127441D01*
X02564433Y01127441D01*
X02591077Y01138477D01*
X02600657Y01115348D01*
X02631005Y01085000D01*
X02176857Y01085000D01*
X02169925Y01086371D01*
X02163069Y01085000D01*
X02156076Y01085000D01*
X02149547Y01082296D01*
X02142618Y01080910D01*
X02136808Y01077019D01*
X02130348Y01074343D01*
X02125352Y01069346D01*
X02119480Y01065414D01*
X02115601Y01059596D01*
X02110657Y01054652D01*
X02107953Y01048123D01*
X01957430Y00822339D01*
X01925076Y00822200D01*
X01930000Y00834087D01*
X01930000Y00865720D01*
X01935351Y00863981D01*
X01945076Y00862441D01*
X01949999Y00862441D01*
X01949999Y00924999D01*
X01950000Y00924999D01*
X01950000Y00862441D01*
X01954923Y00862441D01*
X01964649Y00863981D01*
X01974014Y00867024D01*
X01982788Y00871495D01*
X01990754Y00877283D01*
X01997717Y00884245D01*
X02003505Y00892212D01*
X02007976Y00900986D01*
X02011019Y00910351D01*
X02012559Y00920076D01*
X02012559Y00924999D01*
X01950001Y00924999D01*
X01950001Y00925000D01*
X02012559Y00925000D01*
X02012559Y00929923D01*
X02011019Y00939649D01*
X02007976Y00949014D01*
X02003505Y00957788D01*
X01997717Y00965754D01*
X01990754Y00972717D01*
X01982788Y00978505D01*
X01974014Y00982976D01*
X01964649Y00986019D01*
X01954923Y00987559D01*
X01950000Y00987559D01*
X01950000Y00925001D01*
X01949999Y00925001D01*
X01949999Y00987559D01*
X01945076Y00987559D01*
X01935351Y00986019D01*
X01925986Y00982976D01*
X01917212Y00978505D01*
X01909245Y00972717D01*
X01907071Y00970543D01*
X01891101Y00986513D01*
X01864433Y00997559D01*
X01835567Y00997559D01*
X01808898Y00986513D01*
X01800000Y00977614D01*
X01791101Y00986513D01*
X01787146Y00988151D01*
X01803093Y01004098D01*
X01848995Y01050000D01*
X02043924Y01050000D01*
X02069652Y01060657D01*
X02589925Y01580930D01*
X02595791Y01578500D01*
X02629209Y01578500D01*
X02660082Y01591288D01*
X02683712Y01614918D01*
X02696500Y01645791D01*
X02696500Y01679209D01*
X02683712Y01710082D01*
X02660082Y01733712D01*
X02629209Y01746500D01*
X02612374Y01746500D01*
X02603924Y01750000D01*
X02599449Y01750000D01*
X02595134Y01751186D01*
X02592500Y01750857D01*
X02592500Y01778413D01*
X02586363Y01793229D01*
X02588662Y01792277D01*
X02598032Y01789766D01*
X02607650Y01788500D01*
X02612499Y01788500D01*
X02612499Y01862499D01*
X02538500Y01862499D01*
X02538500Y01857650D01*
X02539766Y01848032D01*
X02542277Y01838662D01*
X02543229Y01836363D01*
X02533674Y01840321D01*
X02509000Y01864995D01*
X02509000Y01866709D01*
X02496212Y01897582D01*
X02472582Y01921212D01*
X02441709Y01934000D01*
X02408291Y01934000D01*
X02380000Y01922281D01*
X02380000Y02093493D01*
X02408949Y02105484D01*
X02432016Y02128551D01*
X02444500Y02158689D01*
X02444500Y02191311D01*
X02432016Y02221449D01*
X02408949Y02244516D01*
X02378811Y02257000D01*
X02346189Y02257000D01*
X02316051Y02244516D01*
X02292984Y02221449D01*
X02290906Y02216432D01*
X02290571Y02216167D01*
X02288570Y02212565D01*
X02250657Y02174652D01*
X02240000Y02148924D01*
X02240000Y01806076D01*
X02250657Y01780348D01*
X02270348Y01760657D01*
X02313505Y01717500D01*
X02310926Y01717500D01*
X02310926Y01650001D01*
X02310924Y01650001D01*
X02310924Y01650000D02*
X02310924Y01649999D01*
X02243425Y01649999D01*
X02243425Y01645576D01*
X02244580Y01636803D01*
X02246870Y01628256D01*
X02250256Y01620081D01*
X02254681Y01612418D01*
X02260067Y01605399D01*
X02266324Y01599142D01*
X02273344Y01593755D01*
X02281007Y01589331D01*
X02289181Y01585945D01*
X02291365Y01585360D01*
X02110363Y01404358D01*
X02117500Y01421587D01*
X02117500Y01453413D01*
X02105321Y01482816D01*
X02104521Y01483616D01*
X02096843Y01502152D01*
X02058995Y01540000D01*
X02069652Y01550657D01*
X02089343Y01570348D01*
X02091468Y01575479D01*
X02098659Y01572500D01*
X02129491Y01572500D01*
X02157975Y01584299D01*
X02179776Y01606100D01*
X02191575Y01634584D01*
X02191575Y01665416D01*
X02184075Y01683522D01*
X02184075Y01711643D01*
X02184776Y01713666D01*
X02184684Y01715217D01*
X02192500Y01734087D01*
X02192500Y01765913D01*
X02180321Y01795316D01*
X02157816Y01817821D01*
X02128413Y01830000D01*
X02107636Y01830000D01*
X02109000Y01833291D01*
X02109000Y01866709D01*
X02096212Y01897582D01*
X02072582Y01921212D01*
X02041709Y01934000D01*
X02008291Y01934000D01*
X01986564Y01925000D01*
X01960000Y01925000D01*
X01960000Y02106005D01*
X01989927Y02135932D01*
X01992984Y02128551D01*
X02016051Y02105484D01*
X02046189Y02093000D01*
X02078811Y02093000D01*
X02108949Y02105484D01*
X02132016Y02128551D01*
X02144500Y02158689D01*
X02144500Y02185505D01*
X02349652Y02390657D01*
X02369343Y02410348D01*
X02380000Y02436076D01*
X02380000Y02554361D01*
X02382000Y02559189D01*
X02382000Y02665811D01*
X02369516Y02695949D01*
X02346449Y02719016D01*
X02316311Y02731500D01*
X02283689Y02731500D01*
X02253551Y02719016D01*
X02250000Y02715465D01*
X02246449Y02719016D01*
X02216311Y02731500D01*
X02183689Y02731500D01*
X02153551Y02719016D01*
X02142317Y02707783D01*
X02140087Y02709494D01*
X02131913Y02714213D01*
X02123193Y02717825D01*
X02114077Y02720268D01*
X02104719Y02721500D01*
X02100000Y02721500D01*
X02100000Y02612501D01*
X02099999Y02612501D01*
X02099999Y02721500D01*
X02095281Y02721500D01*
X02085923Y02720268D01*
X02076807Y02717825D01*
X02068087Y02714213D01*
X02059913Y02709494D01*
X02052425Y02703749D01*
X02045751Y02697075D01*
X02040006Y02689587D01*
X02035287Y02681413D01*
X02031675Y02672693D01*
X02029232Y02663577D01*
X02028000Y02654219D01*
X02028000Y02612500D01*
X02099999Y02612500D01*
X02099999Y02612499D01*
X02100000Y02612499D01*
X02100000Y02503500D01*
X02104719Y02503500D01*
X02114077Y02504732D01*
X02123193Y02507175D01*
X02131913Y02510787D01*
X02135000Y02512569D01*
X02135000Y02478995D01*
X01872500Y02216495D01*
X01828461Y02260533D01*
X01846449Y02267984D01*
X01869516Y02291051D01*
X01882000Y02321189D01*
X01882000Y02353811D01*
X01869516Y02383949D01*
X01846449Y02407016D01*
X01820000Y02417972D01*
X01820000Y02576519D01*
X01820164Y02576930D01*
X01820000Y02590430D01*
X01820000Y02603924D01*
X01819830Y02604333D01*
X01819825Y02604776D01*
X01814507Y02617185D01*
X01809343Y02629652D01*
X01809030Y02629965D01*
X01808855Y02630372D01*
X01807000Y02632183D01*
X01807000Y02653311D01*
X01794516Y02683449D01*
X01771449Y02706516D01*
X01741311Y02719000D01*
X01708689Y02719000D01*
X01678551Y02706516D01*
X01675000Y02702965D01*
X01671449Y02706516D01*
X01641311Y02719000D01*
X01608689Y02719000D01*
X01578551Y02706516D01*
X01575000Y02702965D01*
X01571449Y02706516D01*
X01541311Y02719000D01*
X01508689Y02719000D01*
X01478551Y02706516D01*
X01455484Y02683449D01*
X01443000Y02653311D01*
X01443000Y02626995D01*
X01410657Y02594652D01*
X01400000Y02568924D01*
X01400000Y02358027D01*
X01384299Y02342325D01*
X01372500Y02313841D01*
X01372500Y02283009D01*
X01384299Y02254525D01*
X01406100Y02232724D01*
X01418359Y02227646D01*
X01418553Y02227453D01*
X01425805Y02218958D01*
X01428338Y02217667D01*
X01430348Y02215657D01*
X01440665Y02211383D01*
X01450615Y02206312D01*
X01453449Y02206088D01*
X01456076Y02205000D01*
X01467244Y02205000D01*
X01478376Y02204122D01*
X01481080Y02205000D01*
X01686005Y02205000D01*
X01775074Y02115931D01*
X01753551Y02107016D01*
X01730484Y02083949D01*
X01723787Y02067782D01*
X01690657Y02034652D01*
X01680000Y02008924D01*
X01680000Y01988995D01*
X01521444Y02147551D01*
X01514188Y02156047D01*
X01511659Y02157336D01*
X01509652Y02159343D01*
X01499330Y02163618D01*
X01495716Y02165460D01*
X01493900Y02167276D01*
X01465416Y02179075D01*
X01434584Y02179075D01*
X01406100Y02167276D01*
X01384299Y02145475D01*
X01372500Y02116991D01*
X01372500Y02086495D01*
X01269500Y02189495D01*
X01269500Y02216311D01*
X01257016Y02246449D01*
X01233949Y02269516D01*
X01203811Y02282000D01*
X01171189Y02282000D01*
X01141051Y02269516D01*
X01117984Y02246449D01*
X01105500Y02216311D01*
X01105500Y02183689D01*
X01117984Y02153551D01*
X01121584Y02149951D01*
X01126443Y02140522D01*
X01130657Y02130348D01*
X01132780Y02128226D01*
X01134155Y02125557D01*
X01142562Y02118444D01*
X01325348Y01935657D01*
X01351076Y01925000D01*
X01410254Y01925000D01*
X01408800Y01924161D01*
X01401104Y01918255D01*
X01394244Y01911396D01*
X01388339Y01903700D01*
X01383489Y01895300D01*
X01379777Y01886337D01*
X01377266Y01876968D01*
X01376000Y01867350D01*
X01376000Y01862500D01*
X01449999Y01862500D01*
X01449999Y01862499D01*
X01376000Y01862499D01*
X01376000Y01857650D01*
X01377266Y01848032D01*
X01379777Y01838662D01*
X01383489Y01829700D01*
X01388339Y01821300D01*
X01394244Y01813604D01*
X01401104Y01806744D01*
X01408800Y01800839D01*
X01449999Y01799947D02*
X01450000Y01799947D01*
X01470000Y01749948D02*
X00805000Y01749948D01*
X00812499Y01799947D02*
X00812500Y01799947D01*
X00852155Y01799947D02*
X01156259Y01799947D01*
X01225000Y01750000D02*
X00910000Y01750000D01*
X00910000Y01645000D01*
X00901575Y01625000D01*
X00912500Y01625000D01*
X00975000Y01562500D01*
X00964040Y01549954D02*
X00992500Y01549954D01*
X00992500Y01599953D02*
X00964261Y01599953D01*
X00964301Y01649951D02*
X01024382Y01649951D01*
X01075955Y01699950D02*
X00814045Y01699950D01*
X00735000Y01680000D02*
X00735000Y01820000D01*
X00525000Y02030000D01*
X00525000Y02050000D01*
X00607000Y02049939D02*
X00791066Y02049939D01*
X00741067Y02099938D02*
X00591027Y02099938D01*
X00691069Y02149937D02*
X00329498Y02149937D01*
X00280000Y02100000D02*
X00262500Y02101575D01*
X00280000Y02100000D02*
X00560000Y01820000D01*
X00575000Y01850000D01*
X00595000Y01820000D01*
X00665000Y01750000D01*
X00665000Y01645000D01*
X00840000Y01470000D01*
X00840000Y01260000D01*
X00837500Y01237500D01*
X00937500Y01237500D02*
X00945000Y01260000D01*
X00945000Y01470000D01*
X00735000Y01680000D01*
X00901574Y01649951D02*
X00901575Y01649951D01*
X00910000Y01750000D02*
X00910000Y01785000D01*
X00840000Y01855000D01*
X00812500Y01862500D01*
X00812499Y01849945D02*
X00812500Y01849945D01*
X00812499Y01899944D02*
X00812500Y01899944D01*
X00876329Y01899944D02*
X00941061Y01899944D01*
X00991060Y01849945D02*
X00885486Y01849945D01*
X00891063Y01949942D02*
X00704052Y01949942D01*
X00654054Y01999941D02*
X00841064Y01999941D01*
X00939057Y02099938D02*
X01161067Y02099938D01*
X01211066Y02049939D02*
X00989055Y02049939D01*
X01039054Y01999941D02*
X01261064Y01999941D01*
X01228205Y01949942D02*
X01311063Y01949942D01*
X01365000Y01995000D02*
X01190000Y02170000D01*
X01187500Y02200000D01*
X01121591Y02149937D02*
X00953931Y02149937D01*
X00980183Y02199935D02*
X01105500Y02199935D01*
X01085000Y02170000D02*
X01085000Y02380000D01*
X01225000Y02520000D01*
X01225000Y02842500D01*
X00905000Y02842500D01*
X00910000Y02660000D01*
X00910000Y02625000D01*
X00912500Y02600000D01*
X00912499Y02649922D02*
X00912500Y02649922D01*
X00912499Y02699920D02*
X00912500Y02699920D01*
X00877481Y02699920D02*
X00553045Y02699920D01*
X00582000Y02649922D02*
X00841580Y02649922D01*
X00840500Y02599923D02*
X00595000Y02599923D01*
X00595000Y02549925D02*
X00841600Y02549925D01*
X00877747Y02499926D02*
X00595000Y02499926D01*
X00595000Y02449928D02*
X00845933Y02449928D01*
X00795934Y02399929D02*
X00595000Y02399929D01*
X00607000Y02349931D02*
X00745936Y02349931D01*
X00735000Y02240000D02*
X00700000Y02240000D01*
X00735000Y02240000D02*
X01015000Y02520000D01*
X01015000Y02590000D01*
X01012500Y02600000D01*
X01112500Y02600000D02*
X01120000Y02590000D01*
X01120000Y02520000D01*
X00910000Y02310000D01*
X00910000Y02205000D01*
X00887500Y02200000D01*
X00980000Y02249934D02*
X01121468Y02249934D01*
X01085000Y02170000D02*
X01365000Y01890000D01*
X01435000Y01890000D01*
X01450000Y01862500D01*
X01435000Y01855000D01*
X01330000Y01855000D01*
X01225000Y01750000D01*
X01296500Y01849945D02*
X01377014Y01849945D01*
X01386171Y01899944D02*
X01287911Y01899944D01*
X01365000Y01995000D02*
X01470000Y01995000D01*
X01540000Y01925000D01*
X01540000Y01610000D01*
X01155000Y01225000D01*
X01137500Y01237500D01*
X01037500Y01237500D02*
X01015000Y01225000D01*
X01015000Y01190000D01*
X00998711Y00999970D02*
X00976289Y00999970D01*
X00937500Y00937500D02*
X00937500Y00912500D01*
X01025000Y00825000D01*
X01112500Y00850000D02*
X01037500Y00925000D01*
X01037500Y00937500D01*
X00898711Y00999970D02*
X00876289Y00999970D01*
X00793242Y00849975D02*
X00357500Y00849975D01*
X00357500Y00799976D02*
X00820963Y00799976D01*
X00848685Y00749978D02*
X00357500Y00749978D01*
X00357500Y00699979D02*
X00876407Y00699979D01*
X00904129Y00649981D02*
X00357500Y00649981D01*
X00357500Y00599982D02*
X00938523Y00599982D01*
X00813000Y00514484D02*
X00739484Y00588000D01*
X00687500Y00588000D01*
X00687500Y00462501D01*
X00687499Y00462501D01*
X00687499Y00588000D01*
X00635516Y00588000D01*
X00562000Y00514484D01*
X00562000Y00462500D01*
X00687499Y00462500D01*
X00687499Y00462499D01*
X00687500Y00462499D01*
X00687500Y00337000D01*
X00739484Y00337000D01*
X00813000Y00410516D01*
X00813000Y00462499D01*
X00687501Y00462499D01*
X00687501Y00462500D01*
X00813000Y00462500D01*
X00813000Y00514484D01*
X00813000Y00499985D02*
X01411848Y00499985D01*
X01382500Y00449987D02*
X00813000Y00449987D01*
X00802472Y00399988D02*
X01391446Y00399988D01*
X01432626Y00349990D02*
X00752473Y00349990D01*
X00687500Y00349990D02*
X00687499Y00349990D01*
X00687499Y00337000D02*
X00635516Y00337000D01*
X00562000Y00410516D01*
X00562000Y00462499D01*
X00687499Y00462499D01*
X00687499Y00337000D01*
X00622527Y00349990D02*
X00363626Y00349990D01*
X00407871Y00399988D02*
X00572528Y00399988D01*
X00562000Y00449987D02*
X00423000Y00449987D01*
X00417736Y00499985D02*
X00562000Y00499985D01*
X00597500Y00549984D02*
X00391642Y00549984D01*
X00287500Y00462500D02*
X00287500Y01100000D01*
X00387500Y01200000D01*
X00467500Y01199965D02*
X00486040Y01199965D01*
X00450603Y01149966D02*
X00536039Y01149966D01*
X00586038Y01099968D02*
X00386462Y01099968D01*
X00562500Y01500000D02*
X00562500Y01625000D01*
X00575000Y01637500D01*
X00250000Y01750000D02*
X00237500Y01762500D01*
X00175000Y01762500D01*
X00175000Y01850000D01*
X00379057Y02099938D02*
X00458973Y02099938D01*
X00443000Y02049939D02*
X00429055Y02049939D01*
X00262500Y02298425D02*
X00280000Y02310000D01*
X00280000Y02590000D01*
X00300000Y02600000D01*
X00209521Y02599923D02*
X00045000Y02599923D01*
X00045000Y02649922D02*
X00218000Y02649922D01*
X00246955Y02699920D02*
X00045000Y02699920D01*
X00045000Y02749919D02*
X02667500Y02749919D01*
X02688422Y02799917D02*
X00045000Y02799917D01*
X00045000Y02849916D02*
X03704508Y02849916D01*
X03704508Y02799917D02*
X02786577Y02799917D01*
X02807500Y02749919D02*
X03704508Y02749919D01*
X03704508Y02699920D02*
X03490545Y02699920D01*
X03507000Y02649922D02*
X03704508Y02649922D01*
X03704508Y02599923D02*
X03507000Y02599923D01*
X03503162Y02549925D02*
X03704508Y02549925D01*
X03704508Y02499926D02*
X03497453Y02499926D01*
X03458922Y02449928D02*
X03704508Y02449928D01*
X03704508Y02399929D02*
X03408924Y02399929D01*
X03358925Y02349931D02*
X03704508Y02349931D01*
X03704508Y02299932D02*
X03503533Y02299932D01*
X03532000Y02249934D02*
X03704508Y02249934D01*
X03704508Y02199935D02*
X03535256Y02199935D01*
X03535000Y02149937D02*
X03704508Y02149937D01*
X03704508Y02099938D02*
X03535000Y02099938D01*
X03535000Y02049939D02*
X03704508Y02049939D01*
X03704508Y01999941D02*
X03535000Y01999941D01*
X03570000Y01995000D02*
X03570000Y02625000D01*
X03417500Y02840000D01*
X03277500Y02840000D01*
X03272500Y02747500D01*
X03255000Y02840000D01*
X02625000Y02840000D01*
X02623806Y02838380D01*
X02599686Y02862500D01*
X02162500Y02862500D01*
X02100000Y02800000D01*
X02100000Y02612500D01*
X02100000Y02625000D01*
X01982500Y02842500D01*
X01225000Y02842500D01*
X01165545Y02699920D02*
X01471955Y02699920D01*
X01443000Y02649922D02*
X01194500Y02649922D01*
X01194500Y02599923D02*
X01415928Y02599923D01*
X01400000Y02549925D02*
X01194500Y02549925D01*
X01187453Y02499926D02*
X01400000Y02499926D01*
X01400000Y02449928D02*
X01148922Y02449928D01*
X01159652Y02460657D02*
X01159652Y02460657D01*
X01098924Y02399929D02*
X01400000Y02399929D01*
X01391904Y02349931D02*
X01048925Y02349931D01*
X00998927Y02299932D02*
X01372500Y02299932D01*
X01388890Y02249934D02*
X01253532Y02249934D01*
X01269500Y02199935D02*
X01691070Y02199935D01*
X01741069Y02149937D02*
X01519406Y02149937D01*
X01470000Y02100000D02*
X01450000Y02101575D01*
X01470000Y02100000D02*
X01680000Y01890000D01*
X01680000Y01750000D01*
X01802500Y01627500D01*
X01837500Y01662500D01*
X01802500Y01627500D02*
X01645000Y01470000D01*
X01645000Y01225000D01*
X01650000Y01225000D01*
X01750000Y01225000D02*
X01750000Y01435000D01*
X01925000Y01610000D01*
X01925000Y01715000D01*
X01890000Y01750000D01*
X01820000Y01750000D01*
X01750000Y01820000D01*
X01750000Y01995000D01*
X01785000Y02030000D01*
X01800000Y02037500D01*
X01746473Y02099938D02*
X01569057Y02099938D01*
X01619055Y02049939D02*
X01705945Y02049939D01*
X01680000Y01999941D02*
X01669054Y01999941D01*
X01855000Y01890000D02*
X01850000Y01862500D01*
X01855000Y01855000D01*
X01995000Y01855000D01*
X02025000Y01850000D01*
X02030000Y01820000D01*
X02030000Y01610000D01*
X01960000Y01540000D01*
X02037500Y01462500D01*
X02037500Y01437500D01*
X02117500Y01449957D02*
X02155962Y01449957D01*
X02205961Y01499956D02*
X02097753Y01499956D01*
X02068949Y01549954D02*
X02255960Y01549954D01*
X02265513Y01599953D02*
X02173629Y01599953D01*
X02191575Y01649951D02*
X02243425Y01649951D01*
X02243425Y01650000D02*
X02310924Y01650000D01*
X02310924Y01650001D02*
X02310924Y01717500D01*
X02306501Y01717500D01*
X02297728Y01716345D01*
X02289181Y01714055D01*
X02281007Y01710669D01*
X02273344Y01706244D01*
X02266324Y01700858D01*
X02260067Y01694601D01*
X02254681Y01687581D01*
X02250256Y01679918D01*
X02246870Y01671744D01*
X02244580Y01663197D01*
X02243425Y01654424D01*
X02243425Y01650000D01*
X02265416Y01699950D02*
X02184075Y01699950D01*
X02114075Y01723425D02*
X02114075Y01650000D01*
X02114075Y01723425D02*
X02112500Y01750000D01*
X02175690Y01799947D02*
X02242539Y01799947D01*
X02240000Y01750000D02*
X02240000Y02170000D01*
X02345000Y02275000D01*
X02380000Y02275000D01*
X02450000Y02205000D01*
X02450000Y02030000D01*
X02590000Y01890000D01*
X02612500Y01862500D01*
X02625000Y01855000D01*
X02730000Y01750000D01*
X02730000Y01645000D01*
X02660000Y01575000D01*
X02590000Y01575000D01*
X02220000Y01192500D01*
X02287500Y01125000D01*
X02220000Y01192500D02*
X01960000Y00945000D01*
X01950000Y00925000D01*
X01949999Y00949972D02*
X01950000Y00949972D01*
X01949999Y00899973D02*
X01950000Y00899973D01*
X01930000Y00849975D02*
X01975854Y00849975D01*
X02007460Y00899973D02*
X02009186Y00899973D01*
X02007488Y00949972D02*
X02042519Y00949972D01*
X02075851Y00999970D02*
X01798965Y00999970D01*
X01743750Y01043750D02*
X01662500Y01125000D01*
X01512500Y01125000D01*
X01645000Y00945000D02*
X01650000Y00925000D01*
X01645000Y00945000D02*
X01743750Y01043750D01*
X01820000Y01120000D01*
X02030000Y01120000D01*
X02590000Y01680000D01*
X02612500Y01662500D01*
X02668747Y01599953D02*
X02725958Y01599953D01*
X02730000Y01649951D02*
X02696500Y01649951D01*
X02687909Y01699950D02*
X02730000Y01699950D01*
X02730000Y01749948D02*
X02604048Y01749948D01*
X02612500Y01788500D02*
X02617350Y01788500D01*
X02626968Y01789766D01*
X02636337Y01792277D01*
X02645300Y01795989D01*
X02653700Y01800839D01*
X02661396Y01806744D01*
X02668255Y01813604D01*
X02674161Y01821300D01*
X02679011Y01829700D01*
X02682723Y01838662D01*
X02685234Y01848032D01*
X02686500Y01857650D01*
X02686500Y01862499D01*
X02612501Y01862499D01*
X02612501Y01862500D01*
X02686500Y01862500D01*
X02686500Y01867350D01*
X02685234Y01876968D01*
X02682723Y01886337D01*
X02679011Y01895300D01*
X02674161Y01903700D01*
X02668255Y01911396D01*
X02661396Y01918255D01*
X02653700Y01924161D01*
X02645300Y01929011D01*
X02636337Y01932723D01*
X02626968Y01935234D01*
X02617350Y01936500D01*
X02612500Y01936500D01*
X02612500Y01862501D01*
X02612499Y01862501D01*
X02612499Y01936500D01*
X02607650Y01936500D01*
X02598032Y01935234D01*
X02588662Y01932723D01*
X02579700Y01929011D01*
X02571300Y01924161D01*
X02563604Y01918255D01*
X02556744Y01911396D01*
X02550839Y01903700D01*
X02545989Y01895300D01*
X02542277Y01886337D01*
X02539766Y01876968D01*
X02538500Y01867350D01*
X02538500Y01862500D01*
X02612499Y01862500D01*
X02612499Y01862499D01*
X02612500Y01862499D01*
X02612500Y01788500D01*
X02612499Y01799947D02*
X02612500Y01799947D01*
X02652155Y01799947D02*
X02730000Y01799947D01*
X02730000Y01849945D02*
X02685486Y01849945D01*
X02676329Y01899944D02*
X02730000Y01899944D01*
X02730000Y01949942D02*
X02380000Y01949942D01*
X02380000Y01999941D02*
X02730000Y01999941D01*
X02716066Y02049939D02*
X02630003Y02049939D01*
X02594997Y02049939D02*
X02380000Y02049939D01*
X02395560Y02099938D02*
X02526067Y02099938D01*
X02476069Y02149937D02*
X02440874Y02149937D01*
X02440928Y02199935D02*
X02450000Y02199935D01*
X02450000Y02249934D02*
X02395870Y02249934D01*
X02415000Y02275000D02*
X02415000Y02555000D01*
X02623806Y02838380D01*
X02737500Y02750000D02*
X02737500Y02612500D01*
X02737500Y02575000D01*
X02762500Y02550000D01*
X02762500Y02475000D01*
X02737500Y02500000D01*
X02737500Y02575000D01*
X02837500Y02612500D02*
X02870000Y02590000D01*
X02870000Y02380000D01*
X02887500Y02350000D01*
X02953536Y02399929D02*
X03070934Y02399929D01*
X03020936Y02349931D02*
X02969500Y02349931D01*
X02940000Y02449928D02*
X03120933Y02449928D01*
X03170931Y02499926D02*
X02940000Y02499926D01*
X02940000Y02549925D02*
X03157661Y02549925D01*
X03153000Y02599923D02*
X02940000Y02599923D01*
X02919500Y02649922D02*
X03153000Y02649922D01*
X03220000Y02625000D02*
X03225000Y02612500D01*
X03220000Y02625000D02*
X03220000Y02695000D01*
X03272500Y02747500D01*
X03225000Y02699920D02*
X03224999Y02699920D01*
X03224999Y02649922D02*
X03225000Y02649922D01*
X03173597Y02699920D02*
X02903045Y02699920D01*
X02775000Y02475000D02*
X02762500Y02475000D01*
X02625000Y02590000D02*
X02637500Y02612500D01*
X02625000Y02590000D02*
X02572500Y02537500D01*
X02870000Y02240000D01*
X03010000Y02240000D01*
X03010000Y01890000D01*
X03012500Y01862500D01*
X03045000Y01855000D01*
X03115000Y01855000D01*
X03115000Y01645000D01*
X03010000Y01540000D01*
X02975000Y01540000D01*
X02660000Y01225000D01*
X02650000Y01200000D01*
X02660000Y01190000D01*
X02660000Y01155000D01*
X02730000Y01085000D01*
X03395000Y01085000D01*
X03430000Y01120000D01*
X03450000Y01125000D01*
X03570000Y01190000D02*
X03570000Y00665000D01*
X03255000Y00350000D01*
X03080000Y00350000D01*
X03050000Y00337500D01*
X03032500Y00302500D01*
X02967437Y00201291D01*
X02963646Y00110000D01*
X02440000Y00110000D01*
X02437500Y00512500D01*
X02450000Y00657500D01*
X02520000Y00654488D02*
X02520000Y00643576D01*
X02518812Y00640708D01*
X02507518Y00509705D01*
X02509566Y00180000D01*
X02896492Y00180000D01*
X02896601Y00182615D01*
X02893640Y00196235D01*
X02898588Y00223640D01*
X02901025Y00227431D01*
X02901025Y00227431D01*
X02905954Y00235099D01*
X02909790Y00243370D01*
X02913418Y00246709D01*
X02915656Y00250190D01*
X02896449Y00230984D01*
X02866311Y00218500D01*
X02833689Y00218500D01*
X02803551Y00230984D01*
X02780484Y00254051D01*
X02768000Y00284189D01*
X02768000Y00390811D01*
X02780000Y00419781D01*
X02780000Y00713924D01*
X02782500Y00719959D01*
X02782500Y00728413D01*
X02794679Y00757816D01*
X02817184Y00780321D01*
X02846587Y00792500D01*
X02878413Y00792500D01*
X02895642Y00785363D01*
X02806978Y00874027D01*
X02803505Y00867212D01*
X02797717Y00859245D01*
X02790754Y00852283D01*
X02782788Y00846495D01*
X02774014Y00842024D01*
X02764649Y00838981D01*
X02754923Y00837441D01*
X02750000Y00837441D01*
X02750000Y00899999D01*
X02749999Y00899999D01*
X02749999Y00837441D01*
X02745076Y00837441D01*
X02735351Y00838981D01*
X02725986Y00842024D01*
X02720000Y00845074D01*
X02720000Y00586076D01*
X02709343Y00560348D01*
X02690321Y00541326D01*
X02680321Y00517184D01*
X02657816Y00494679D01*
X02628413Y00482500D01*
X02596587Y00482500D01*
X02567184Y00494679D01*
X02544679Y00517184D01*
X02532500Y00546587D01*
X02532500Y00578413D01*
X02544679Y00607816D01*
X02567184Y00630321D01*
X02580000Y00635629D01*
X02580000Y00700835D01*
X02565913Y00695000D01*
X02534087Y00695000D01*
X02520000Y00700835D01*
X02520000Y00668320D01*
X02520937Y00665360D01*
X02520000Y00654488D01*
X02520000Y00649981D02*
X02580000Y00649981D01*
X02580000Y00699979D02*
X02577934Y00699979D01*
X02522066Y00699979D02*
X02520000Y00699979D01*
X02550000Y00775000D02*
X02550000Y00900000D01*
X02650000Y00900000D02*
X02650000Y00600000D01*
X02612500Y00562500D01*
X02541434Y00599982D02*
X02515301Y00599982D01*
X02510991Y00549984D02*
X02532500Y00549984D01*
X02507579Y00499985D02*
X02561878Y00499985D01*
X02507890Y00449987D02*
X02780000Y00449987D01*
X02780000Y00499985D02*
X02663122Y00499985D01*
X02654719Y00446500D02*
X02664077Y00445268D01*
X02673193Y00442825D01*
X02681913Y00439213D01*
X02690087Y00434494D01*
X02697575Y00428749D01*
X02704249Y00422075D01*
X02709994Y00414587D01*
X02714713Y00406413D01*
X02718325Y00397693D01*
X02720768Y00388577D01*
X02722000Y00379219D01*
X02722000Y00337500D01*
X02650001Y00337500D01*
X02650001Y00337499D01*
X02722000Y00337499D01*
X02722000Y00295781D01*
X02720768Y00286423D01*
X02718325Y00277307D01*
X02714713Y00268587D01*
X02709994Y00260413D01*
X02704249Y00252925D01*
X02697575Y00246251D01*
X02690087Y00240506D01*
X02681913Y00235787D01*
X02673193Y00232175D01*
X02664077Y00229732D01*
X02654719Y00228500D01*
X02650000Y00228500D01*
X02650000Y00337499D01*
X02649999Y00337499D01*
X02649999Y00228500D01*
X02645281Y00228500D01*
X02635923Y00229732D01*
X02626807Y00232175D01*
X02618087Y00235787D01*
X02609913Y00240506D01*
X02602425Y00246251D01*
X02595751Y00252925D01*
X02590006Y00260413D01*
X02585287Y00268587D01*
X02581675Y00277307D01*
X02579232Y00286423D01*
X02578000Y00295781D01*
X02578000Y00337499D01*
X02649999Y00337499D01*
X02649999Y00337500D01*
X02578000Y00337500D01*
X02578000Y00379219D01*
X02579232Y00388577D01*
X02581675Y00397693D01*
X02585287Y00406413D01*
X02590006Y00414587D01*
X02595751Y00422075D01*
X02602425Y00428749D01*
X02609913Y00434494D01*
X02618087Y00439213D01*
X02626807Y00442825D01*
X02635923Y00445268D01*
X02645281Y00446500D01*
X02649999Y00446500D01*
X02649999Y00337501D01*
X02650000Y00337501D01*
X02650000Y00446500D01*
X02654719Y00446500D01*
X02649999Y00399988D02*
X02650000Y00399988D01*
X02649999Y00349990D02*
X02650000Y00349990D01*
X02660000Y00350000D02*
X02650000Y00337500D01*
X02660000Y00350000D02*
X02730000Y00420000D01*
X02730000Y00910000D01*
X02752500Y00910000D01*
X02837500Y00825000D01*
X02831030Y00849975D02*
X02787578Y00849975D01*
X02750000Y00849975D02*
X02749999Y00849975D01*
X02720000Y00799976D02*
X02881029Y00799976D01*
X02862500Y00712500D02*
X02850000Y00700000D01*
X02850000Y00337500D01*
X02768000Y00349990D02*
X02722000Y00349990D01*
X02717375Y00399988D02*
X02771801Y00399988D01*
X02768000Y00299991D02*
X02722000Y00299991D01*
X02701316Y00249993D02*
X02784542Y00249993D01*
X02894319Y00199994D02*
X02509442Y00199994D01*
X02509132Y00249993D02*
X02598684Y00249993D01*
X02578000Y00299991D02*
X02508821Y00299991D01*
X02508511Y00349990D02*
X02578000Y00349990D01*
X02582625Y00399988D02*
X02508200Y00399988D01*
X02368197Y00399988D02*
X02255000Y00399988D01*
X02225627Y00349990D02*
X02368508Y00349990D01*
X02368819Y00299991D02*
X02182000Y00299991D01*
X02182000Y00249993D02*
X02369129Y00249993D01*
X02369440Y00199994D02*
X02165460Y00199994D01*
X02100000Y00287500D02*
X02100000Y00400000D01*
X02112500Y00412500D01*
X02175000Y00412500D01*
X02246064Y00449987D02*
X02367887Y00449987D01*
X02367576Y00499985D02*
X02167500Y00499985D01*
X02150653Y00549984D02*
X02370472Y00549984D01*
X02087500Y00500000D02*
X02062500Y00475000D01*
X02000000Y00475000D01*
X02000000Y00287500D01*
X01900000Y00287500D02*
X01900000Y00462500D01*
X01800000Y00462500D02*
X01800000Y00287500D01*
X01700000Y00287500D02*
X01687500Y00300000D01*
X01687500Y00462500D01*
X01616436Y00499985D02*
X01513152Y00499985D01*
X01542500Y00449987D02*
X01607500Y00449987D01*
X01462500Y00437500D02*
X01462500Y00425000D01*
X01600000Y00287500D01*
X01499357Y00049999D02*
X00045000Y00049999D01*
X00045000Y00099997D02*
X02370000Y00099997D01*
X02369750Y00149996D02*
X00045000Y00149996D01*
X00687499Y00399988D02*
X00687500Y00399988D01*
X00687499Y00449987D02*
X00687500Y00449987D01*
X00687499Y00499985D02*
X00687500Y00499985D01*
X00687499Y00549984D02*
X00687500Y00549984D01*
X00777500Y00549984D02*
X02024347Y00549984D01*
X01850000Y00850000D02*
X01850000Y00925000D01*
X01750000Y00925000D02*
X01750000Y00850000D01*
X01848964Y01049969D02*
X02108717Y01049969D01*
X02108962Y01099968D02*
X02616038Y01099968D01*
X02550000Y01200000D02*
X02550000Y01212500D01*
X02625000Y01287500D01*
X02750000Y01200000D02*
X02765000Y01190000D01*
X03220000Y01645000D01*
X03220000Y01750000D01*
X03465000Y01995000D01*
X03465000Y02205000D01*
X03450000Y02237500D01*
X03376804Y02199935D02*
X03223196Y02199935D01*
X03258928Y02249934D02*
X03368000Y02249934D01*
X03396467Y02299932D02*
X03308927Y02299932D01*
X03150000Y02240000D02*
X03150000Y02237500D01*
X03150000Y02240000D02*
X03430000Y02520000D01*
X03430000Y02590000D01*
X03425000Y02612500D01*
X03325000Y02612500D02*
X03325000Y02555000D01*
X03010000Y02240000D01*
X03080000Y02149937D02*
X03395000Y02149937D01*
X03395000Y02099938D02*
X03080000Y02099938D01*
X03080000Y02049939D02*
X03395000Y02049939D01*
X03370946Y01999941D02*
X03080000Y01999941D01*
X03080000Y01949942D02*
X03320948Y01949942D01*
X03212500Y01862500D02*
X03185000Y01855000D01*
X03115000Y01855000D01*
X03318943Y01749948D02*
X03536243Y01749948D01*
X03510924Y01705000D02*
X03506501Y01705000D01*
X03497728Y01703845D01*
X03489181Y01701555D01*
X03481007Y01698169D01*
X03473344Y01693744D01*
X03466324Y01688358D01*
X03460067Y01682101D01*
X03454681Y01675081D01*
X03450256Y01667418D01*
X03446870Y01659244D01*
X03444580Y01650697D01*
X03443425Y01641924D01*
X03443425Y01637500D01*
X03510924Y01637500D01*
X03510924Y01637501D02*
X03510924Y01705000D01*
X03510924Y01699950D02*
X03510926Y01699950D01*
X03485307Y01699950D02*
X03361226Y01699950D01*
X03391575Y01649951D02*
X03444482Y01649951D01*
X03454661Y01599953D02*
X03395000Y01599953D01*
X03395000Y01549954D02*
X03704508Y01549954D01*
X03704508Y01499956D02*
X03395000Y01499956D01*
X03409038Y01449957D02*
X03704508Y01449957D01*
X03704508Y01399959D02*
X03459036Y01399959D01*
X03509035Y01349960D02*
X03704508Y01349960D01*
X03704508Y01299962D02*
X03559033Y01299962D01*
X03609032Y01249963D02*
X03704508Y01249963D01*
X03704508Y01199965D02*
X03640000Y01199965D01*
X03570000Y01190000D02*
X03325000Y01435000D01*
X03325000Y01610000D01*
X03314075Y01637500D01*
X03368942Y01799947D02*
X03556259Y01799947D01*
X03528500Y01849945D02*
X03418940Y01849945D01*
X03468939Y01899944D02*
X03537089Y01899944D01*
X03500000Y01925000D02*
X03570000Y01995000D01*
X03518937Y01949942D02*
X03704508Y01949942D01*
X03704508Y01899944D02*
X03687911Y01899944D01*
X03650000Y01825000D02*
X03612500Y01862500D01*
X03650000Y01825000D02*
X03612500Y01725000D01*
X03584633Y01649951D02*
X03577368Y01649951D01*
X03578425Y01637499D02*
X03510926Y01637499D01*
X03510926Y01570000D01*
X03515349Y01570000D01*
X03524122Y01571155D01*
X03532669Y01573445D01*
X03540844Y01576831D01*
X03548507Y01581255D01*
X03555526Y01586642D01*
X03561783Y01592899D01*
X03567170Y01599918D01*
X03571594Y01607581D01*
X03574980Y01615756D01*
X03577270Y01624303D01*
X03578425Y01633076D01*
X03578425Y01637499D01*
X03567189Y01599953D02*
X03704508Y01599953D01*
X03704508Y01649951D02*
X03640366Y01649951D01*
X03688715Y01699950D02*
X03704508Y01699950D01*
X03704508Y01749948D02*
X03696616Y01749948D01*
X03510926Y01649951D02*
X03510924Y01649951D01*
X03500000Y01645000D02*
X03510925Y01637500D01*
X03500000Y01645000D02*
X03500000Y01925000D01*
X03510924Y01599953D02*
X03510926Y01599953D01*
X03012500Y01662500D02*
X03010000Y01645000D01*
X02870000Y01645000D01*
X02817500Y01592500D01*
X02800000Y01610000D01*
X02800000Y02065000D01*
X02625000Y02240000D01*
X02625000Y02310000D01*
X02612500Y02323425D01*
X02520000Y02205000D02*
X02520000Y02485000D01*
X02572500Y02537500D01*
X02535928Y02599923D02*
X02382000Y02599923D01*
X02382000Y02649922D02*
X02555500Y02649922D01*
X02571955Y02699920D02*
X02365545Y02699920D01*
X02300000Y02612500D02*
X02310000Y02590000D01*
X02310000Y02450000D01*
X02065000Y02205000D01*
X02062500Y02175000D01*
X02095561Y02099938D02*
X02240000Y02099938D01*
X02240000Y02049939D02*
X01960000Y02049939D01*
X01960000Y02099938D02*
X02029439Y02099938D01*
X01960000Y01999941D02*
X02240000Y01999941D01*
X02240000Y01949942D02*
X01960000Y01949942D01*
X01890000Y01925000D02*
X01855000Y01890000D01*
X01890000Y01925000D02*
X01890000Y02100000D01*
X01715000Y02275000D01*
X01470000Y02275000D01*
X01450000Y02298425D01*
X01470000Y02310000D01*
X01470000Y02555000D01*
X01505000Y02590000D01*
X01525000Y02600000D01*
X01625000Y02600000D02*
X01625000Y02450000D01*
X01750000Y02380000D02*
X01785000Y02345000D01*
X01800000Y02337500D01*
X01750000Y02380000D02*
X01750000Y02590000D01*
X01725000Y02600000D01*
X01820000Y02599923D02*
X02028000Y02599923D01*
X02028000Y02612499D02*
X02028000Y02570781D01*
X02029232Y02561423D01*
X02031675Y02552307D01*
X02035287Y02543587D01*
X02040006Y02535413D01*
X02045751Y02527925D01*
X02052425Y02521251D01*
X02059913Y02515506D01*
X02068087Y02510787D01*
X02076807Y02507175D01*
X02085923Y02504732D01*
X02095281Y02503500D01*
X02099999Y02503500D01*
X02099999Y02612499D01*
X02028000Y02612499D01*
X02028000Y02649922D02*
X01807000Y02649922D01*
X01778045Y02699920D02*
X02048597Y02699920D01*
X02099999Y02699920D02*
X02100000Y02699920D01*
X02099999Y02649922D02*
X02100000Y02649922D01*
X02099999Y02599923D02*
X02100000Y02599923D01*
X02099999Y02549925D02*
X02100000Y02549925D01*
X02135000Y02499926D02*
X01820000Y02499926D01*
X01820000Y02449928D02*
X02105933Y02449928D01*
X02055934Y02399929D02*
X01853536Y02399929D01*
X01882000Y02349931D02*
X02005936Y02349931D01*
X01955937Y02299932D02*
X01873195Y02299932D01*
X01905939Y02249934D02*
X01839061Y02249934D01*
X01890000Y02135000D02*
X01890000Y02100000D01*
X01890000Y02135000D02*
X02205000Y02450000D01*
X02205000Y02590000D01*
X02200000Y02612500D01*
X02032661Y02549925D02*
X01820000Y02549925D01*
X02158930Y02199935D02*
X02275940Y02199935D01*
X02240420Y02149937D02*
X02140874Y02149937D01*
X02208928Y02249934D02*
X02329130Y02249934D01*
X02258927Y02299932D02*
X02450000Y02299932D01*
X02450000Y02349931D02*
X02308925Y02349931D01*
X02358924Y02399929D02*
X02450000Y02399929D01*
X02450000Y02449928D02*
X02380000Y02449928D01*
X02380000Y02499926D02*
X02450415Y02499926D01*
X02485930Y02549925D02*
X02380000Y02549925D01*
X02520000Y02205000D02*
X02590000Y02135000D01*
X02612500Y02126575D01*
X02612499Y01899944D02*
X02612500Y01899944D01*
X02612499Y01849945D02*
X02612500Y01849945D01*
X02539514Y01849945D02*
X02524049Y01849945D01*
X02548671Y01899944D02*
X02493850Y01899944D01*
X02425000Y01850000D02*
X02512500Y01762500D01*
X02415000Y01715000D02*
X02310000Y01820000D01*
X02310000Y02135000D01*
X02345000Y02170000D01*
X02362500Y02175000D01*
X02240000Y01899944D02*
X02093850Y01899944D01*
X02109000Y01849945D02*
X02240000Y01849945D01*
X02240000Y01750000D02*
X02310000Y01680000D01*
X02310925Y01650000D01*
X02310924Y01699950D02*
X02310926Y01699950D01*
X02281057Y01749948D02*
X02192500Y01749948D01*
X02415000Y01715000D02*
X02415000Y01610000D01*
X02030000Y01225000D01*
X01950000Y01225000D01*
X01855000Y01225000D02*
X01850000Y01225000D01*
X01855000Y01225000D02*
X01855000Y01435000D01*
X01960000Y01540000D01*
X02258958Y01249963D02*
X02384573Y01249963D01*
X02377441Y01199965D02*
X02208959Y01199965D01*
X02158961Y01149966D02*
X02397420Y01149966D01*
X02450000Y01200000D02*
X02450000Y01225000D01*
X02817500Y01592500D01*
X02675959Y01549954D02*
X02558949Y01549954D01*
X02508951Y01499956D02*
X02625961Y01499956D01*
X02575962Y01449957D02*
X02458952Y01449957D01*
X02408953Y01399959D02*
X02525964Y01399959D01*
X02475965Y01349960D02*
X02358955Y01349960D01*
X02308956Y01299962D02*
X02425967Y01299962D01*
X02170000Y01015000D02*
X02765000Y01015000D01*
X03045000Y00735000D01*
X03430000Y00735000D01*
X03450000Y00725000D01*
X03603977Y00599982D02*
X03704508Y00599982D01*
X03704508Y00549984D02*
X03553979Y00549984D01*
X03503980Y00499985D02*
X03704508Y00499985D01*
X03704508Y00449987D02*
X03453982Y00449987D01*
X03403983Y00399988D02*
X03704508Y00399988D01*
X03704508Y00349990D02*
X03353984Y00349990D01*
X03303986Y00299991D02*
X03704508Y00299991D01*
X03704508Y00249993D02*
X03115458Y00249993D01*
X03049820Y00199994D02*
X03559232Y00199994D01*
X03554540Y00195301D02*
X03547689Y00178762D01*
X03547689Y00121238D01*
X03554540Y00104698D01*
X03567198Y00092040D01*
X03583738Y00085189D01*
X03641262Y00085189D01*
X03657801Y00092040D01*
X03670460Y00104698D01*
X03677311Y00121238D01*
X03677311Y00178762D01*
X03670460Y00195301D01*
X03657801Y00207960D01*
X03641262Y00214811D01*
X03583738Y00214811D01*
X03567198Y00207960D01*
X03554540Y00195301D01*
X03547689Y00149996D02*
X03035367Y00149996D01*
X03033646Y00099997D02*
X03559241Y00099997D01*
X03665759Y00099997D02*
X03704508Y00099997D01*
X03704508Y00149996D02*
X03677311Y00149996D01*
X03665767Y00199994D02*
X03704508Y00199994D01*
X03704508Y00649981D02*
X03639546Y00649981D01*
X03640000Y00699979D02*
X03704508Y00699979D01*
X03704508Y00749978D02*
X03640000Y00749978D01*
X03640000Y00799976D02*
X03704508Y00799976D01*
X03704508Y00849975D02*
X03640000Y00849975D01*
X03640000Y00899973D02*
X03704508Y00899973D01*
X03704508Y00949972D02*
X03640000Y00949972D01*
X03640000Y00999970D02*
X03704508Y00999970D01*
X03704508Y01049969D02*
X03640000Y01049969D01*
X03640000Y01099968D02*
X03704508Y01099968D01*
X03704508Y01149966D02*
X03640000Y01149966D01*
X03450000Y00925000D02*
X03087500Y00925000D01*
X03075000Y00912500D01*
X02791433Y00749978D02*
X02720000Y00749978D01*
X02720000Y00699979D02*
X02780000Y00699979D01*
X02780000Y00649981D02*
X02720000Y00649981D01*
X02720000Y00599982D02*
X02780000Y00599982D01*
X02780000Y00549984D02*
X02698978Y00549984D01*
X02649999Y00299991D02*
X02650000Y00299991D01*
X02649999Y00249993D02*
X02650000Y00249993D01*
X02915458Y00249993D02*
X02915529Y00249993D01*
X02967437Y00201291D02*
X02965000Y00197500D01*
X02749999Y00899973D02*
X02750000Y00899973D01*
X02750000Y00900000D02*
X02730000Y00910000D01*
X02887500Y01912500D02*
X02887500Y02050000D01*
X01450000Y01849945D02*
X01449999Y01849945D01*
X01437500Y01662500D02*
X01435000Y01645000D01*
X01432500Y01645000D01*
X01250000Y01462500D01*
X01062500Y01500000D02*
X01062500Y01589075D01*
X01098425Y01625000D01*
X01120000Y01645000D01*
X01432500Y01645000D01*
X01372500Y02099938D02*
X01359057Y02099938D01*
X01388760Y02149937D02*
X01309058Y02149937D01*
X00959455Y02699920D02*
X00947519Y02699920D01*
X00525000Y02590000D02*
X00525000Y02350000D01*
X00400000Y02337500D02*
X00400000Y02600000D01*
X00500000Y02600000D02*
X00525000Y02590000D01*
X00210000Y02549925D02*
X00045000Y02549925D01*
X00045000Y02499926D02*
X00210000Y02499926D01*
X00210000Y02449928D02*
X00045000Y02449928D01*
X00045000Y02399929D02*
X00210000Y02399929D01*
X00204404Y02349931D02*
X00045000Y02349931D01*
X00045000Y02299932D02*
X00179111Y02299932D01*
X00175000Y02249934D02*
X00045000Y02249934D01*
X00045000Y02199935D02*
X00140940Y02199935D01*
X00090942Y02149937D02*
X00045000Y02149937D01*
D18*
X00400000Y02337500D03*
X00250000Y01750000D03*
X00562500Y01500000D03*
X00387500Y01200000D03*
X00675000Y01075000D03*
X01025000Y00825000D03*
X01112500Y00850000D03*
X01512500Y01125000D03*
X01750000Y00850000D03*
X01850000Y00850000D03*
X02212500Y00900000D03*
X02287500Y01125000D03*
X02625000Y01287500D03*
X03075000Y00912500D03*
X02862500Y00712500D03*
X02837500Y00825000D03*
X02550000Y00775000D03*
X02612500Y00562500D03*
X02175000Y00412500D03*
X02087500Y00500000D03*
X01900000Y00462500D03*
X01800000Y00462500D03*
X01687500Y00462500D03*
X01462500Y00437500D03*
X02037500Y01437500D03*
X02112500Y01750000D03*
X02512500Y01762500D03*
X02887500Y01912500D03*
X02775000Y02475000D03*
X03612500Y01725000D03*
X01625000Y02450000D03*
X00975000Y01562500D03*
X01062500Y01500000D03*
D19*
X03612500Y00150000D03*
M02*
