G75*
%MOIN*%
%OFA0B0*%
%FSLAX26Y26*%
%IPPOS*%
%LPD*%
%AMOC8*
5,1,8,0,0,1.08239X$1,22.5*
%
%ADD10C,0.000000*%
D10*
X00000000Y00000000D02*
X00000000Y02912106D01*
X03749508Y02924606D01*
X03749508Y00012500D01*
X00000000Y00000000D01*
X01480000Y00287500D02*
X01480006Y00287991D01*
X01480024Y00288481D01*
X01480054Y00288971D01*
X01480096Y00289460D01*
X01480150Y00289948D01*
X01480216Y00290435D01*
X01480294Y00290919D01*
X01480384Y00291402D01*
X01480486Y00291882D01*
X01480599Y00292360D01*
X01480724Y00292834D01*
X01480861Y00293306D01*
X01481009Y00293774D01*
X01481169Y00294238D01*
X01481340Y00294698D01*
X01481522Y00295154D01*
X01481716Y00295605D01*
X01481920Y00296051D01*
X01482136Y00296492D01*
X01482362Y00296928D01*
X01482598Y00297358D01*
X01482845Y00297782D01*
X01483103Y00298200D01*
X01483371Y00298611D01*
X01483648Y00299016D01*
X01483936Y00299414D01*
X01484233Y00299805D01*
X01484540Y00300188D01*
X01484856Y00300563D01*
X01485181Y00300931D01*
X01485515Y00301291D01*
X01485858Y00301642D01*
X01486209Y00301985D01*
X01486569Y00302319D01*
X01486937Y00302644D01*
X01487312Y00302960D01*
X01487695Y00303267D01*
X01488086Y00303564D01*
X01488484Y00303852D01*
X01488889Y00304129D01*
X01489300Y00304397D01*
X01489718Y00304655D01*
X01490142Y00304902D01*
X01490572Y00305138D01*
X01491008Y00305364D01*
X01491449Y00305580D01*
X01491895Y00305784D01*
X01492346Y00305978D01*
X01492802Y00306160D01*
X01493262Y00306331D01*
X01493726Y00306491D01*
X01494194Y00306639D01*
X01494666Y00306776D01*
X01495140Y00306901D01*
X01495618Y00307014D01*
X01496098Y00307116D01*
X01496581Y00307206D01*
X01497065Y00307284D01*
X01497552Y00307350D01*
X01498040Y00307404D01*
X01498529Y00307446D01*
X01499019Y00307476D01*
X01499509Y00307494D01*
X01500000Y00307500D01*
X01500491Y00307494D01*
X01500981Y00307476D01*
X01501471Y00307446D01*
X01501960Y00307404D01*
X01502448Y00307350D01*
X01502935Y00307284D01*
X01503419Y00307206D01*
X01503902Y00307116D01*
X01504382Y00307014D01*
X01504860Y00306901D01*
X01505334Y00306776D01*
X01505806Y00306639D01*
X01506274Y00306491D01*
X01506738Y00306331D01*
X01507198Y00306160D01*
X01507654Y00305978D01*
X01508105Y00305784D01*
X01508551Y00305580D01*
X01508992Y00305364D01*
X01509428Y00305138D01*
X01509858Y00304902D01*
X01510282Y00304655D01*
X01510700Y00304397D01*
X01511111Y00304129D01*
X01511516Y00303852D01*
X01511914Y00303564D01*
X01512305Y00303267D01*
X01512688Y00302960D01*
X01513063Y00302644D01*
X01513431Y00302319D01*
X01513791Y00301985D01*
X01514142Y00301642D01*
X01514485Y00301291D01*
X01514819Y00300931D01*
X01515144Y00300563D01*
X01515460Y00300188D01*
X01515767Y00299805D01*
X01516064Y00299414D01*
X01516352Y00299016D01*
X01516629Y00298611D01*
X01516897Y00298200D01*
X01517155Y00297782D01*
X01517402Y00297358D01*
X01517638Y00296928D01*
X01517864Y00296492D01*
X01518080Y00296051D01*
X01518284Y00295605D01*
X01518478Y00295154D01*
X01518660Y00294698D01*
X01518831Y00294238D01*
X01518991Y00293774D01*
X01519139Y00293306D01*
X01519276Y00292834D01*
X01519401Y00292360D01*
X01519514Y00291882D01*
X01519616Y00291402D01*
X01519706Y00290919D01*
X01519784Y00290435D01*
X01519850Y00289948D01*
X01519904Y00289460D01*
X01519946Y00288971D01*
X01519976Y00288481D01*
X01519994Y00287991D01*
X01520000Y00287500D01*
X01519994Y00287009D01*
X01519976Y00286519D01*
X01519946Y00286029D01*
X01519904Y00285540D01*
X01519850Y00285052D01*
X01519784Y00284565D01*
X01519706Y00284081D01*
X01519616Y00283598D01*
X01519514Y00283118D01*
X01519401Y00282640D01*
X01519276Y00282166D01*
X01519139Y00281694D01*
X01518991Y00281226D01*
X01518831Y00280762D01*
X01518660Y00280302D01*
X01518478Y00279846D01*
X01518284Y00279395D01*
X01518080Y00278949D01*
X01517864Y00278508D01*
X01517638Y00278072D01*
X01517402Y00277642D01*
X01517155Y00277218D01*
X01516897Y00276800D01*
X01516629Y00276389D01*
X01516352Y00275984D01*
X01516064Y00275586D01*
X01515767Y00275195D01*
X01515460Y00274812D01*
X01515144Y00274437D01*
X01514819Y00274069D01*
X01514485Y00273709D01*
X01514142Y00273358D01*
X01513791Y00273015D01*
X01513431Y00272681D01*
X01513063Y00272356D01*
X01512688Y00272040D01*
X01512305Y00271733D01*
X01511914Y00271436D01*
X01511516Y00271148D01*
X01511111Y00270871D01*
X01510700Y00270603D01*
X01510282Y00270345D01*
X01509858Y00270098D01*
X01509428Y00269862D01*
X01508992Y00269636D01*
X01508551Y00269420D01*
X01508105Y00269216D01*
X01507654Y00269022D01*
X01507198Y00268840D01*
X01506738Y00268669D01*
X01506274Y00268509D01*
X01505806Y00268361D01*
X01505334Y00268224D01*
X01504860Y00268099D01*
X01504382Y00267986D01*
X01503902Y00267884D01*
X01503419Y00267794D01*
X01502935Y00267716D01*
X01502448Y00267650D01*
X01501960Y00267596D01*
X01501471Y00267554D01*
X01500981Y00267524D01*
X01500491Y00267506D01*
X01500000Y00267500D01*
X01499509Y00267506D01*
X01499019Y00267524D01*
X01498529Y00267554D01*
X01498040Y00267596D01*
X01497552Y00267650D01*
X01497065Y00267716D01*
X01496581Y00267794D01*
X01496098Y00267884D01*
X01495618Y00267986D01*
X01495140Y00268099D01*
X01494666Y00268224D01*
X01494194Y00268361D01*
X01493726Y00268509D01*
X01493262Y00268669D01*
X01492802Y00268840D01*
X01492346Y00269022D01*
X01491895Y00269216D01*
X01491449Y00269420D01*
X01491008Y00269636D01*
X01490572Y00269862D01*
X01490142Y00270098D01*
X01489718Y00270345D01*
X01489300Y00270603D01*
X01488889Y00270871D01*
X01488484Y00271148D01*
X01488086Y00271436D01*
X01487695Y00271733D01*
X01487312Y00272040D01*
X01486937Y00272356D01*
X01486569Y00272681D01*
X01486209Y00273015D01*
X01485858Y00273358D01*
X01485515Y00273709D01*
X01485181Y00274069D01*
X01484856Y00274437D01*
X01484540Y00274812D01*
X01484233Y00275195D01*
X01483936Y00275586D01*
X01483648Y00275984D01*
X01483371Y00276389D01*
X01483103Y00276800D01*
X01482845Y00277218D01*
X01482598Y00277642D01*
X01482362Y00278072D01*
X01482136Y00278508D01*
X01481920Y00278949D01*
X01481716Y00279395D01*
X01481522Y00279846D01*
X01481340Y00280302D01*
X01481169Y00280762D01*
X01481009Y00281226D01*
X01480861Y00281694D01*
X01480724Y00282166D01*
X01480599Y00282640D01*
X01480486Y00283118D01*
X01480384Y00283598D01*
X01480294Y00284081D01*
X01480216Y00284565D01*
X01480150Y00285052D01*
X01480096Y00285540D01*
X01480054Y00286029D01*
X01480024Y00286519D01*
X01480006Y00287009D01*
X01480000Y00287500D01*
X01580000Y00287500D02*
X01580006Y00287991D01*
X01580024Y00288481D01*
X01580054Y00288971D01*
X01580096Y00289460D01*
X01580150Y00289948D01*
X01580216Y00290435D01*
X01580294Y00290919D01*
X01580384Y00291402D01*
X01580486Y00291882D01*
X01580599Y00292360D01*
X01580724Y00292834D01*
X01580861Y00293306D01*
X01581009Y00293774D01*
X01581169Y00294238D01*
X01581340Y00294698D01*
X01581522Y00295154D01*
X01581716Y00295605D01*
X01581920Y00296051D01*
X01582136Y00296492D01*
X01582362Y00296928D01*
X01582598Y00297358D01*
X01582845Y00297782D01*
X01583103Y00298200D01*
X01583371Y00298611D01*
X01583648Y00299016D01*
X01583936Y00299414D01*
X01584233Y00299805D01*
X01584540Y00300188D01*
X01584856Y00300563D01*
X01585181Y00300931D01*
X01585515Y00301291D01*
X01585858Y00301642D01*
X01586209Y00301985D01*
X01586569Y00302319D01*
X01586937Y00302644D01*
X01587312Y00302960D01*
X01587695Y00303267D01*
X01588086Y00303564D01*
X01588484Y00303852D01*
X01588889Y00304129D01*
X01589300Y00304397D01*
X01589718Y00304655D01*
X01590142Y00304902D01*
X01590572Y00305138D01*
X01591008Y00305364D01*
X01591449Y00305580D01*
X01591895Y00305784D01*
X01592346Y00305978D01*
X01592802Y00306160D01*
X01593262Y00306331D01*
X01593726Y00306491D01*
X01594194Y00306639D01*
X01594666Y00306776D01*
X01595140Y00306901D01*
X01595618Y00307014D01*
X01596098Y00307116D01*
X01596581Y00307206D01*
X01597065Y00307284D01*
X01597552Y00307350D01*
X01598040Y00307404D01*
X01598529Y00307446D01*
X01599019Y00307476D01*
X01599509Y00307494D01*
X01600000Y00307500D01*
X01600491Y00307494D01*
X01600981Y00307476D01*
X01601471Y00307446D01*
X01601960Y00307404D01*
X01602448Y00307350D01*
X01602935Y00307284D01*
X01603419Y00307206D01*
X01603902Y00307116D01*
X01604382Y00307014D01*
X01604860Y00306901D01*
X01605334Y00306776D01*
X01605806Y00306639D01*
X01606274Y00306491D01*
X01606738Y00306331D01*
X01607198Y00306160D01*
X01607654Y00305978D01*
X01608105Y00305784D01*
X01608551Y00305580D01*
X01608992Y00305364D01*
X01609428Y00305138D01*
X01609858Y00304902D01*
X01610282Y00304655D01*
X01610700Y00304397D01*
X01611111Y00304129D01*
X01611516Y00303852D01*
X01611914Y00303564D01*
X01612305Y00303267D01*
X01612688Y00302960D01*
X01613063Y00302644D01*
X01613431Y00302319D01*
X01613791Y00301985D01*
X01614142Y00301642D01*
X01614485Y00301291D01*
X01614819Y00300931D01*
X01615144Y00300563D01*
X01615460Y00300188D01*
X01615767Y00299805D01*
X01616064Y00299414D01*
X01616352Y00299016D01*
X01616629Y00298611D01*
X01616897Y00298200D01*
X01617155Y00297782D01*
X01617402Y00297358D01*
X01617638Y00296928D01*
X01617864Y00296492D01*
X01618080Y00296051D01*
X01618284Y00295605D01*
X01618478Y00295154D01*
X01618660Y00294698D01*
X01618831Y00294238D01*
X01618991Y00293774D01*
X01619139Y00293306D01*
X01619276Y00292834D01*
X01619401Y00292360D01*
X01619514Y00291882D01*
X01619616Y00291402D01*
X01619706Y00290919D01*
X01619784Y00290435D01*
X01619850Y00289948D01*
X01619904Y00289460D01*
X01619946Y00288971D01*
X01619976Y00288481D01*
X01619994Y00287991D01*
X01620000Y00287500D01*
X01619994Y00287009D01*
X01619976Y00286519D01*
X01619946Y00286029D01*
X01619904Y00285540D01*
X01619850Y00285052D01*
X01619784Y00284565D01*
X01619706Y00284081D01*
X01619616Y00283598D01*
X01619514Y00283118D01*
X01619401Y00282640D01*
X01619276Y00282166D01*
X01619139Y00281694D01*
X01618991Y00281226D01*
X01618831Y00280762D01*
X01618660Y00280302D01*
X01618478Y00279846D01*
X01618284Y00279395D01*
X01618080Y00278949D01*
X01617864Y00278508D01*
X01617638Y00278072D01*
X01617402Y00277642D01*
X01617155Y00277218D01*
X01616897Y00276800D01*
X01616629Y00276389D01*
X01616352Y00275984D01*
X01616064Y00275586D01*
X01615767Y00275195D01*
X01615460Y00274812D01*
X01615144Y00274437D01*
X01614819Y00274069D01*
X01614485Y00273709D01*
X01614142Y00273358D01*
X01613791Y00273015D01*
X01613431Y00272681D01*
X01613063Y00272356D01*
X01612688Y00272040D01*
X01612305Y00271733D01*
X01611914Y00271436D01*
X01611516Y00271148D01*
X01611111Y00270871D01*
X01610700Y00270603D01*
X01610282Y00270345D01*
X01609858Y00270098D01*
X01609428Y00269862D01*
X01608992Y00269636D01*
X01608551Y00269420D01*
X01608105Y00269216D01*
X01607654Y00269022D01*
X01607198Y00268840D01*
X01606738Y00268669D01*
X01606274Y00268509D01*
X01605806Y00268361D01*
X01605334Y00268224D01*
X01604860Y00268099D01*
X01604382Y00267986D01*
X01603902Y00267884D01*
X01603419Y00267794D01*
X01602935Y00267716D01*
X01602448Y00267650D01*
X01601960Y00267596D01*
X01601471Y00267554D01*
X01600981Y00267524D01*
X01600491Y00267506D01*
X01600000Y00267500D01*
X01599509Y00267506D01*
X01599019Y00267524D01*
X01598529Y00267554D01*
X01598040Y00267596D01*
X01597552Y00267650D01*
X01597065Y00267716D01*
X01596581Y00267794D01*
X01596098Y00267884D01*
X01595618Y00267986D01*
X01595140Y00268099D01*
X01594666Y00268224D01*
X01594194Y00268361D01*
X01593726Y00268509D01*
X01593262Y00268669D01*
X01592802Y00268840D01*
X01592346Y00269022D01*
X01591895Y00269216D01*
X01591449Y00269420D01*
X01591008Y00269636D01*
X01590572Y00269862D01*
X01590142Y00270098D01*
X01589718Y00270345D01*
X01589300Y00270603D01*
X01588889Y00270871D01*
X01588484Y00271148D01*
X01588086Y00271436D01*
X01587695Y00271733D01*
X01587312Y00272040D01*
X01586937Y00272356D01*
X01586569Y00272681D01*
X01586209Y00273015D01*
X01585858Y00273358D01*
X01585515Y00273709D01*
X01585181Y00274069D01*
X01584856Y00274437D01*
X01584540Y00274812D01*
X01584233Y00275195D01*
X01583936Y00275586D01*
X01583648Y00275984D01*
X01583371Y00276389D01*
X01583103Y00276800D01*
X01582845Y00277218D01*
X01582598Y00277642D01*
X01582362Y00278072D01*
X01582136Y00278508D01*
X01581920Y00278949D01*
X01581716Y00279395D01*
X01581522Y00279846D01*
X01581340Y00280302D01*
X01581169Y00280762D01*
X01581009Y00281226D01*
X01580861Y00281694D01*
X01580724Y00282166D01*
X01580599Y00282640D01*
X01580486Y00283118D01*
X01580384Y00283598D01*
X01580294Y00284081D01*
X01580216Y00284565D01*
X01580150Y00285052D01*
X01580096Y00285540D01*
X01580054Y00286029D01*
X01580024Y00286519D01*
X01580006Y00287009D01*
X01580000Y00287500D01*
X01680000Y00287500D02*
X01680006Y00287991D01*
X01680024Y00288481D01*
X01680054Y00288971D01*
X01680096Y00289460D01*
X01680150Y00289948D01*
X01680216Y00290435D01*
X01680294Y00290919D01*
X01680384Y00291402D01*
X01680486Y00291882D01*
X01680599Y00292360D01*
X01680724Y00292834D01*
X01680861Y00293306D01*
X01681009Y00293774D01*
X01681169Y00294238D01*
X01681340Y00294698D01*
X01681522Y00295154D01*
X01681716Y00295605D01*
X01681920Y00296051D01*
X01682136Y00296492D01*
X01682362Y00296928D01*
X01682598Y00297358D01*
X01682845Y00297782D01*
X01683103Y00298200D01*
X01683371Y00298611D01*
X01683648Y00299016D01*
X01683936Y00299414D01*
X01684233Y00299805D01*
X01684540Y00300188D01*
X01684856Y00300563D01*
X01685181Y00300931D01*
X01685515Y00301291D01*
X01685858Y00301642D01*
X01686209Y00301985D01*
X01686569Y00302319D01*
X01686937Y00302644D01*
X01687312Y00302960D01*
X01687695Y00303267D01*
X01688086Y00303564D01*
X01688484Y00303852D01*
X01688889Y00304129D01*
X01689300Y00304397D01*
X01689718Y00304655D01*
X01690142Y00304902D01*
X01690572Y00305138D01*
X01691008Y00305364D01*
X01691449Y00305580D01*
X01691895Y00305784D01*
X01692346Y00305978D01*
X01692802Y00306160D01*
X01693262Y00306331D01*
X01693726Y00306491D01*
X01694194Y00306639D01*
X01694666Y00306776D01*
X01695140Y00306901D01*
X01695618Y00307014D01*
X01696098Y00307116D01*
X01696581Y00307206D01*
X01697065Y00307284D01*
X01697552Y00307350D01*
X01698040Y00307404D01*
X01698529Y00307446D01*
X01699019Y00307476D01*
X01699509Y00307494D01*
X01700000Y00307500D01*
X01700491Y00307494D01*
X01700981Y00307476D01*
X01701471Y00307446D01*
X01701960Y00307404D01*
X01702448Y00307350D01*
X01702935Y00307284D01*
X01703419Y00307206D01*
X01703902Y00307116D01*
X01704382Y00307014D01*
X01704860Y00306901D01*
X01705334Y00306776D01*
X01705806Y00306639D01*
X01706274Y00306491D01*
X01706738Y00306331D01*
X01707198Y00306160D01*
X01707654Y00305978D01*
X01708105Y00305784D01*
X01708551Y00305580D01*
X01708992Y00305364D01*
X01709428Y00305138D01*
X01709858Y00304902D01*
X01710282Y00304655D01*
X01710700Y00304397D01*
X01711111Y00304129D01*
X01711516Y00303852D01*
X01711914Y00303564D01*
X01712305Y00303267D01*
X01712688Y00302960D01*
X01713063Y00302644D01*
X01713431Y00302319D01*
X01713791Y00301985D01*
X01714142Y00301642D01*
X01714485Y00301291D01*
X01714819Y00300931D01*
X01715144Y00300563D01*
X01715460Y00300188D01*
X01715767Y00299805D01*
X01716064Y00299414D01*
X01716352Y00299016D01*
X01716629Y00298611D01*
X01716897Y00298200D01*
X01717155Y00297782D01*
X01717402Y00297358D01*
X01717638Y00296928D01*
X01717864Y00296492D01*
X01718080Y00296051D01*
X01718284Y00295605D01*
X01718478Y00295154D01*
X01718660Y00294698D01*
X01718831Y00294238D01*
X01718991Y00293774D01*
X01719139Y00293306D01*
X01719276Y00292834D01*
X01719401Y00292360D01*
X01719514Y00291882D01*
X01719616Y00291402D01*
X01719706Y00290919D01*
X01719784Y00290435D01*
X01719850Y00289948D01*
X01719904Y00289460D01*
X01719946Y00288971D01*
X01719976Y00288481D01*
X01719994Y00287991D01*
X01720000Y00287500D01*
X01719994Y00287009D01*
X01719976Y00286519D01*
X01719946Y00286029D01*
X01719904Y00285540D01*
X01719850Y00285052D01*
X01719784Y00284565D01*
X01719706Y00284081D01*
X01719616Y00283598D01*
X01719514Y00283118D01*
X01719401Y00282640D01*
X01719276Y00282166D01*
X01719139Y00281694D01*
X01718991Y00281226D01*
X01718831Y00280762D01*
X01718660Y00280302D01*
X01718478Y00279846D01*
X01718284Y00279395D01*
X01718080Y00278949D01*
X01717864Y00278508D01*
X01717638Y00278072D01*
X01717402Y00277642D01*
X01717155Y00277218D01*
X01716897Y00276800D01*
X01716629Y00276389D01*
X01716352Y00275984D01*
X01716064Y00275586D01*
X01715767Y00275195D01*
X01715460Y00274812D01*
X01715144Y00274437D01*
X01714819Y00274069D01*
X01714485Y00273709D01*
X01714142Y00273358D01*
X01713791Y00273015D01*
X01713431Y00272681D01*
X01713063Y00272356D01*
X01712688Y00272040D01*
X01712305Y00271733D01*
X01711914Y00271436D01*
X01711516Y00271148D01*
X01711111Y00270871D01*
X01710700Y00270603D01*
X01710282Y00270345D01*
X01709858Y00270098D01*
X01709428Y00269862D01*
X01708992Y00269636D01*
X01708551Y00269420D01*
X01708105Y00269216D01*
X01707654Y00269022D01*
X01707198Y00268840D01*
X01706738Y00268669D01*
X01706274Y00268509D01*
X01705806Y00268361D01*
X01705334Y00268224D01*
X01704860Y00268099D01*
X01704382Y00267986D01*
X01703902Y00267884D01*
X01703419Y00267794D01*
X01702935Y00267716D01*
X01702448Y00267650D01*
X01701960Y00267596D01*
X01701471Y00267554D01*
X01700981Y00267524D01*
X01700491Y00267506D01*
X01700000Y00267500D01*
X01699509Y00267506D01*
X01699019Y00267524D01*
X01698529Y00267554D01*
X01698040Y00267596D01*
X01697552Y00267650D01*
X01697065Y00267716D01*
X01696581Y00267794D01*
X01696098Y00267884D01*
X01695618Y00267986D01*
X01695140Y00268099D01*
X01694666Y00268224D01*
X01694194Y00268361D01*
X01693726Y00268509D01*
X01693262Y00268669D01*
X01692802Y00268840D01*
X01692346Y00269022D01*
X01691895Y00269216D01*
X01691449Y00269420D01*
X01691008Y00269636D01*
X01690572Y00269862D01*
X01690142Y00270098D01*
X01689718Y00270345D01*
X01689300Y00270603D01*
X01688889Y00270871D01*
X01688484Y00271148D01*
X01688086Y00271436D01*
X01687695Y00271733D01*
X01687312Y00272040D01*
X01686937Y00272356D01*
X01686569Y00272681D01*
X01686209Y00273015D01*
X01685858Y00273358D01*
X01685515Y00273709D01*
X01685181Y00274069D01*
X01684856Y00274437D01*
X01684540Y00274812D01*
X01684233Y00275195D01*
X01683936Y00275586D01*
X01683648Y00275984D01*
X01683371Y00276389D01*
X01683103Y00276800D01*
X01682845Y00277218D01*
X01682598Y00277642D01*
X01682362Y00278072D01*
X01682136Y00278508D01*
X01681920Y00278949D01*
X01681716Y00279395D01*
X01681522Y00279846D01*
X01681340Y00280302D01*
X01681169Y00280762D01*
X01681009Y00281226D01*
X01680861Y00281694D01*
X01680724Y00282166D01*
X01680599Y00282640D01*
X01680486Y00283118D01*
X01680384Y00283598D01*
X01680294Y00284081D01*
X01680216Y00284565D01*
X01680150Y00285052D01*
X01680096Y00285540D01*
X01680054Y00286029D01*
X01680024Y00286519D01*
X01680006Y00287009D01*
X01680000Y00287500D01*
X01780000Y00287500D02*
X01780006Y00287991D01*
X01780024Y00288481D01*
X01780054Y00288971D01*
X01780096Y00289460D01*
X01780150Y00289948D01*
X01780216Y00290435D01*
X01780294Y00290919D01*
X01780384Y00291402D01*
X01780486Y00291882D01*
X01780599Y00292360D01*
X01780724Y00292834D01*
X01780861Y00293306D01*
X01781009Y00293774D01*
X01781169Y00294238D01*
X01781340Y00294698D01*
X01781522Y00295154D01*
X01781716Y00295605D01*
X01781920Y00296051D01*
X01782136Y00296492D01*
X01782362Y00296928D01*
X01782598Y00297358D01*
X01782845Y00297782D01*
X01783103Y00298200D01*
X01783371Y00298611D01*
X01783648Y00299016D01*
X01783936Y00299414D01*
X01784233Y00299805D01*
X01784540Y00300188D01*
X01784856Y00300563D01*
X01785181Y00300931D01*
X01785515Y00301291D01*
X01785858Y00301642D01*
X01786209Y00301985D01*
X01786569Y00302319D01*
X01786937Y00302644D01*
X01787312Y00302960D01*
X01787695Y00303267D01*
X01788086Y00303564D01*
X01788484Y00303852D01*
X01788889Y00304129D01*
X01789300Y00304397D01*
X01789718Y00304655D01*
X01790142Y00304902D01*
X01790572Y00305138D01*
X01791008Y00305364D01*
X01791449Y00305580D01*
X01791895Y00305784D01*
X01792346Y00305978D01*
X01792802Y00306160D01*
X01793262Y00306331D01*
X01793726Y00306491D01*
X01794194Y00306639D01*
X01794666Y00306776D01*
X01795140Y00306901D01*
X01795618Y00307014D01*
X01796098Y00307116D01*
X01796581Y00307206D01*
X01797065Y00307284D01*
X01797552Y00307350D01*
X01798040Y00307404D01*
X01798529Y00307446D01*
X01799019Y00307476D01*
X01799509Y00307494D01*
X01800000Y00307500D01*
X01800491Y00307494D01*
X01800981Y00307476D01*
X01801471Y00307446D01*
X01801960Y00307404D01*
X01802448Y00307350D01*
X01802935Y00307284D01*
X01803419Y00307206D01*
X01803902Y00307116D01*
X01804382Y00307014D01*
X01804860Y00306901D01*
X01805334Y00306776D01*
X01805806Y00306639D01*
X01806274Y00306491D01*
X01806738Y00306331D01*
X01807198Y00306160D01*
X01807654Y00305978D01*
X01808105Y00305784D01*
X01808551Y00305580D01*
X01808992Y00305364D01*
X01809428Y00305138D01*
X01809858Y00304902D01*
X01810282Y00304655D01*
X01810700Y00304397D01*
X01811111Y00304129D01*
X01811516Y00303852D01*
X01811914Y00303564D01*
X01812305Y00303267D01*
X01812688Y00302960D01*
X01813063Y00302644D01*
X01813431Y00302319D01*
X01813791Y00301985D01*
X01814142Y00301642D01*
X01814485Y00301291D01*
X01814819Y00300931D01*
X01815144Y00300563D01*
X01815460Y00300188D01*
X01815767Y00299805D01*
X01816064Y00299414D01*
X01816352Y00299016D01*
X01816629Y00298611D01*
X01816897Y00298200D01*
X01817155Y00297782D01*
X01817402Y00297358D01*
X01817638Y00296928D01*
X01817864Y00296492D01*
X01818080Y00296051D01*
X01818284Y00295605D01*
X01818478Y00295154D01*
X01818660Y00294698D01*
X01818831Y00294238D01*
X01818991Y00293774D01*
X01819139Y00293306D01*
X01819276Y00292834D01*
X01819401Y00292360D01*
X01819514Y00291882D01*
X01819616Y00291402D01*
X01819706Y00290919D01*
X01819784Y00290435D01*
X01819850Y00289948D01*
X01819904Y00289460D01*
X01819946Y00288971D01*
X01819976Y00288481D01*
X01819994Y00287991D01*
X01820000Y00287500D01*
X01819994Y00287009D01*
X01819976Y00286519D01*
X01819946Y00286029D01*
X01819904Y00285540D01*
X01819850Y00285052D01*
X01819784Y00284565D01*
X01819706Y00284081D01*
X01819616Y00283598D01*
X01819514Y00283118D01*
X01819401Y00282640D01*
X01819276Y00282166D01*
X01819139Y00281694D01*
X01818991Y00281226D01*
X01818831Y00280762D01*
X01818660Y00280302D01*
X01818478Y00279846D01*
X01818284Y00279395D01*
X01818080Y00278949D01*
X01817864Y00278508D01*
X01817638Y00278072D01*
X01817402Y00277642D01*
X01817155Y00277218D01*
X01816897Y00276800D01*
X01816629Y00276389D01*
X01816352Y00275984D01*
X01816064Y00275586D01*
X01815767Y00275195D01*
X01815460Y00274812D01*
X01815144Y00274437D01*
X01814819Y00274069D01*
X01814485Y00273709D01*
X01814142Y00273358D01*
X01813791Y00273015D01*
X01813431Y00272681D01*
X01813063Y00272356D01*
X01812688Y00272040D01*
X01812305Y00271733D01*
X01811914Y00271436D01*
X01811516Y00271148D01*
X01811111Y00270871D01*
X01810700Y00270603D01*
X01810282Y00270345D01*
X01809858Y00270098D01*
X01809428Y00269862D01*
X01808992Y00269636D01*
X01808551Y00269420D01*
X01808105Y00269216D01*
X01807654Y00269022D01*
X01807198Y00268840D01*
X01806738Y00268669D01*
X01806274Y00268509D01*
X01805806Y00268361D01*
X01805334Y00268224D01*
X01804860Y00268099D01*
X01804382Y00267986D01*
X01803902Y00267884D01*
X01803419Y00267794D01*
X01802935Y00267716D01*
X01802448Y00267650D01*
X01801960Y00267596D01*
X01801471Y00267554D01*
X01800981Y00267524D01*
X01800491Y00267506D01*
X01800000Y00267500D01*
X01799509Y00267506D01*
X01799019Y00267524D01*
X01798529Y00267554D01*
X01798040Y00267596D01*
X01797552Y00267650D01*
X01797065Y00267716D01*
X01796581Y00267794D01*
X01796098Y00267884D01*
X01795618Y00267986D01*
X01795140Y00268099D01*
X01794666Y00268224D01*
X01794194Y00268361D01*
X01793726Y00268509D01*
X01793262Y00268669D01*
X01792802Y00268840D01*
X01792346Y00269022D01*
X01791895Y00269216D01*
X01791449Y00269420D01*
X01791008Y00269636D01*
X01790572Y00269862D01*
X01790142Y00270098D01*
X01789718Y00270345D01*
X01789300Y00270603D01*
X01788889Y00270871D01*
X01788484Y00271148D01*
X01788086Y00271436D01*
X01787695Y00271733D01*
X01787312Y00272040D01*
X01786937Y00272356D01*
X01786569Y00272681D01*
X01786209Y00273015D01*
X01785858Y00273358D01*
X01785515Y00273709D01*
X01785181Y00274069D01*
X01784856Y00274437D01*
X01784540Y00274812D01*
X01784233Y00275195D01*
X01783936Y00275586D01*
X01783648Y00275984D01*
X01783371Y00276389D01*
X01783103Y00276800D01*
X01782845Y00277218D01*
X01782598Y00277642D01*
X01782362Y00278072D01*
X01782136Y00278508D01*
X01781920Y00278949D01*
X01781716Y00279395D01*
X01781522Y00279846D01*
X01781340Y00280302D01*
X01781169Y00280762D01*
X01781009Y00281226D01*
X01780861Y00281694D01*
X01780724Y00282166D01*
X01780599Y00282640D01*
X01780486Y00283118D01*
X01780384Y00283598D01*
X01780294Y00284081D01*
X01780216Y00284565D01*
X01780150Y00285052D01*
X01780096Y00285540D01*
X01780054Y00286029D01*
X01780024Y00286519D01*
X01780006Y00287009D01*
X01780000Y00287500D01*
X01880000Y00287500D02*
X01880006Y00287991D01*
X01880024Y00288481D01*
X01880054Y00288971D01*
X01880096Y00289460D01*
X01880150Y00289948D01*
X01880216Y00290435D01*
X01880294Y00290919D01*
X01880384Y00291402D01*
X01880486Y00291882D01*
X01880599Y00292360D01*
X01880724Y00292834D01*
X01880861Y00293306D01*
X01881009Y00293774D01*
X01881169Y00294238D01*
X01881340Y00294698D01*
X01881522Y00295154D01*
X01881716Y00295605D01*
X01881920Y00296051D01*
X01882136Y00296492D01*
X01882362Y00296928D01*
X01882598Y00297358D01*
X01882845Y00297782D01*
X01883103Y00298200D01*
X01883371Y00298611D01*
X01883648Y00299016D01*
X01883936Y00299414D01*
X01884233Y00299805D01*
X01884540Y00300188D01*
X01884856Y00300563D01*
X01885181Y00300931D01*
X01885515Y00301291D01*
X01885858Y00301642D01*
X01886209Y00301985D01*
X01886569Y00302319D01*
X01886937Y00302644D01*
X01887312Y00302960D01*
X01887695Y00303267D01*
X01888086Y00303564D01*
X01888484Y00303852D01*
X01888889Y00304129D01*
X01889300Y00304397D01*
X01889718Y00304655D01*
X01890142Y00304902D01*
X01890572Y00305138D01*
X01891008Y00305364D01*
X01891449Y00305580D01*
X01891895Y00305784D01*
X01892346Y00305978D01*
X01892802Y00306160D01*
X01893262Y00306331D01*
X01893726Y00306491D01*
X01894194Y00306639D01*
X01894666Y00306776D01*
X01895140Y00306901D01*
X01895618Y00307014D01*
X01896098Y00307116D01*
X01896581Y00307206D01*
X01897065Y00307284D01*
X01897552Y00307350D01*
X01898040Y00307404D01*
X01898529Y00307446D01*
X01899019Y00307476D01*
X01899509Y00307494D01*
X01900000Y00307500D01*
X01900491Y00307494D01*
X01900981Y00307476D01*
X01901471Y00307446D01*
X01901960Y00307404D01*
X01902448Y00307350D01*
X01902935Y00307284D01*
X01903419Y00307206D01*
X01903902Y00307116D01*
X01904382Y00307014D01*
X01904860Y00306901D01*
X01905334Y00306776D01*
X01905806Y00306639D01*
X01906274Y00306491D01*
X01906738Y00306331D01*
X01907198Y00306160D01*
X01907654Y00305978D01*
X01908105Y00305784D01*
X01908551Y00305580D01*
X01908992Y00305364D01*
X01909428Y00305138D01*
X01909858Y00304902D01*
X01910282Y00304655D01*
X01910700Y00304397D01*
X01911111Y00304129D01*
X01911516Y00303852D01*
X01911914Y00303564D01*
X01912305Y00303267D01*
X01912688Y00302960D01*
X01913063Y00302644D01*
X01913431Y00302319D01*
X01913791Y00301985D01*
X01914142Y00301642D01*
X01914485Y00301291D01*
X01914819Y00300931D01*
X01915144Y00300563D01*
X01915460Y00300188D01*
X01915767Y00299805D01*
X01916064Y00299414D01*
X01916352Y00299016D01*
X01916629Y00298611D01*
X01916897Y00298200D01*
X01917155Y00297782D01*
X01917402Y00297358D01*
X01917638Y00296928D01*
X01917864Y00296492D01*
X01918080Y00296051D01*
X01918284Y00295605D01*
X01918478Y00295154D01*
X01918660Y00294698D01*
X01918831Y00294238D01*
X01918991Y00293774D01*
X01919139Y00293306D01*
X01919276Y00292834D01*
X01919401Y00292360D01*
X01919514Y00291882D01*
X01919616Y00291402D01*
X01919706Y00290919D01*
X01919784Y00290435D01*
X01919850Y00289948D01*
X01919904Y00289460D01*
X01919946Y00288971D01*
X01919976Y00288481D01*
X01919994Y00287991D01*
X01920000Y00287500D01*
X01919994Y00287009D01*
X01919976Y00286519D01*
X01919946Y00286029D01*
X01919904Y00285540D01*
X01919850Y00285052D01*
X01919784Y00284565D01*
X01919706Y00284081D01*
X01919616Y00283598D01*
X01919514Y00283118D01*
X01919401Y00282640D01*
X01919276Y00282166D01*
X01919139Y00281694D01*
X01918991Y00281226D01*
X01918831Y00280762D01*
X01918660Y00280302D01*
X01918478Y00279846D01*
X01918284Y00279395D01*
X01918080Y00278949D01*
X01917864Y00278508D01*
X01917638Y00278072D01*
X01917402Y00277642D01*
X01917155Y00277218D01*
X01916897Y00276800D01*
X01916629Y00276389D01*
X01916352Y00275984D01*
X01916064Y00275586D01*
X01915767Y00275195D01*
X01915460Y00274812D01*
X01915144Y00274437D01*
X01914819Y00274069D01*
X01914485Y00273709D01*
X01914142Y00273358D01*
X01913791Y00273015D01*
X01913431Y00272681D01*
X01913063Y00272356D01*
X01912688Y00272040D01*
X01912305Y00271733D01*
X01911914Y00271436D01*
X01911516Y00271148D01*
X01911111Y00270871D01*
X01910700Y00270603D01*
X01910282Y00270345D01*
X01909858Y00270098D01*
X01909428Y00269862D01*
X01908992Y00269636D01*
X01908551Y00269420D01*
X01908105Y00269216D01*
X01907654Y00269022D01*
X01907198Y00268840D01*
X01906738Y00268669D01*
X01906274Y00268509D01*
X01905806Y00268361D01*
X01905334Y00268224D01*
X01904860Y00268099D01*
X01904382Y00267986D01*
X01903902Y00267884D01*
X01903419Y00267794D01*
X01902935Y00267716D01*
X01902448Y00267650D01*
X01901960Y00267596D01*
X01901471Y00267554D01*
X01900981Y00267524D01*
X01900491Y00267506D01*
X01900000Y00267500D01*
X01899509Y00267506D01*
X01899019Y00267524D01*
X01898529Y00267554D01*
X01898040Y00267596D01*
X01897552Y00267650D01*
X01897065Y00267716D01*
X01896581Y00267794D01*
X01896098Y00267884D01*
X01895618Y00267986D01*
X01895140Y00268099D01*
X01894666Y00268224D01*
X01894194Y00268361D01*
X01893726Y00268509D01*
X01893262Y00268669D01*
X01892802Y00268840D01*
X01892346Y00269022D01*
X01891895Y00269216D01*
X01891449Y00269420D01*
X01891008Y00269636D01*
X01890572Y00269862D01*
X01890142Y00270098D01*
X01889718Y00270345D01*
X01889300Y00270603D01*
X01888889Y00270871D01*
X01888484Y00271148D01*
X01888086Y00271436D01*
X01887695Y00271733D01*
X01887312Y00272040D01*
X01886937Y00272356D01*
X01886569Y00272681D01*
X01886209Y00273015D01*
X01885858Y00273358D01*
X01885515Y00273709D01*
X01885181Y00274069D01*
X01884856Y00274437D01*
X01884540Y00274812D01*
X01884233Y00275195D01*
X01883936Y00275586D01*
X01883648Y00275984D01*
X01883371Y00276389D01*
X01883103Y00276800D01*
X01882845Y00277218D01*
X01882598Y00277642D01*
X01882362Y00278072D01*
X01882136Y00278508D01*
X01881920Y00278949D01*
X01881716Y00279395D01*
X01881522Y00279846D01*
X01881340Y00280302D01*
X01881169Y00280762D01*
X01881009Y00281226D01*
X01880861Y00281694D01*
X01880724Y00282166D01*
X01880599Y00282640D01*
X01880486Y00283118D01*
X01880384Y00283598D01*
X01880294Y00284081D01*
X01880216Y00284565D01*
X01880150Y00285052D01*
X01880096Y00285540D01*
X01880054Y00286029D01*
X01880024Y00286519D01*
X01880006Y00287009D01*
X01880000Y00287500D01*
X01980000Y00287500D02*
X01980006Y00287991D01*
X01980024Y00288481D01*
X01980054Y00288971D01*
X01980096Y00289460D01*
X01980150Y00289948D01*
X01980216Y00290435D01*
X01980294Y00290919D01*
X01980384Y00291402D01*
X01980486Y00291882D01*
X01980599Y00292360D01*
X01980724Y00292834D01*
X01980861Y00293306D01*
X01981009Y00293774D01*
X01981169Y00294238D01*
X01981340Y00294698D01*
X01981522Y00295154D01*
X01981716Y00295605D01*
X01981920Y00296051D01*
X01982136Y00296492D01*
X01982362Y00296928D01*
X01982598Y00297358D01*
X01982845Y00297782D01*
X01983103Y00298200D01*
X01983371Y00298611D01*
X01983648Y00299016D01*
X01983936Y00299414D01*
X01984233Y00299805D01*
X01984540Y00300188D01*
X01984856Y00300563D01*
X01985181Y00300931D01*
X01985515Y00301291D01*
X01985858Y00301642D01*
X01986209Y00301985D01*
X01986569Y00302319D01*
X01986937Y00302644D01*
X01987312Y00302960D01*
X01987695Y00303267D01*
X01988086Y00303564D01*
X01988484Y00303852D01*
X01988889Y00304129D01*
X01989300Y00304397D01*
X01989718Y00304655D01*
X01990142Y00304902D01*
X01990572Y00305138D01*
X01991008Y00305364D01*
X01991449Y00305580D01*
X01991895Y00305784D01*
X01992346Y00305978D01*
X01992802Y00306160D01*
X01993262Y00306331D01*
X01993726Y00306491D01*
X01994194Y00306639D01*
X01994666Y00306776D01*
X01995140Y00306901D01*
X01995618Y00307014D01*
X01996098Y00307116D01*
X01996581Y00307206D01*
X01997065Y00307284D01*
X01997552Y00307350D01*
X01998040Y00307404D01*
X01998529Y00307446D01*
X01999019Y00307476D01*
X01999509Y00307494D01*
X02000000Y00307500D01*
X02000491Y00307494D01*
X02000981Y00307476D01*
X02001471Y00307446D01*
X02001960Y00307404D01*
X02002448Y00307350D01*
X02002935Y00307284D01*
X02003419Y00307206D01*
X02003902Y00307116D01*
X02004382Y00307014D01*
X02004860Y00306901D01*
X02005334Y00306776D01*
X02005806Y00306639D01*
X02006274Y00306491D01*
X02006738Y00306331D01*
X02007198Y00306160D01*
X02007654Y00305978D01*
X02008105Y00305784D01*
X02008551Y00305580D01*
X02008992Y00305364D01*
X02009428Y00305138D01*
X02009858Y00304902D01*
X02010282Y00304655D01*
X02010700Y00304397D01*
X02011111Y00304129D01*
X02011516Y00303852D01*
X02011914Y00303564D01*
X02012305Y00303267D01*
X02012688Y00302960D01*
X02013063Y00302644D01*
X02013431Y00302319D01*
X02013791Y00301985D01*
X02014142Y00301642D01*
X02014485Y00301291D01*
X02014819Y00300931D01*
X02015144Y00300563D01*
X02015460Y00300188D01*
X02015767Y00299805D01*
X02016064Y00299414D01*
X02016352Y00299016D01*
X02016629Y00298611D01*
X02016897Y00298200D01*
X02017155Y00297782D01*
X02017402Y00297358D01*
X02017638Y00296928D01*
X02017864Y00296492D01*
X02018080Y00296051D01*
X02018284Y00295605D01*
X02018478Y00295154D01*
X02018660Y00294698D01*
X02018831Y00294238D01*
X02018991Y00293774D01*
X02019139Y00293306D01*
X02019276Y00292834D01*
X02019401Y00292360D01*
X02019514Y00291882D01*
X02019616Y00291402D01*
X02019706Y00290919D01*
X02019784Y00290435D01*
X02019850Y00289948D01*
X02019904Y00289460D01*
X02019946Y00288971D01*
X02019976Y00288481D01*
X02019994Y00287991D01*
X02020000Y00287500D01*
X02019994Y00287009D01*
X02019976Y00286519D01*
X02019946Y00286029D01*
X02019904Y00285540D01*
X02019850Y00285052D01*
X02019784Y00284565D01*
X02019706Y00284081D01*
X02019616Y00283598D01*
X02019514Y00283118D01*
X02019401Y00282640D01*
X02019276Y00282166D01*
X02019139Y00281694D01*
X02018991Y00281226D01*
X02018831Y00280762D01*
X02018660Y00280302D01*
X02018478Y00279846D01*
X02018284Y00279395D01*
X02018080Y00278949D01*
X02017864Y00278508D01*
X02017638Y00278072D01*
X02017402Y00277642D01*
X02017155Y00277218D01*
X02016897Y00276800D01*
X02016629Y00276389D01*
X02016352Y00275984D01*
X02016064Y00275586D01*
X02015767Y00275195D01*
X02015460Y00274812D01*
X02015144Y00274437D01*
X02014819Y00274069D01*
X02014485Y00273709D01*
X02014142Y00273358D01*
X02013791Y00273015D01*
X02013431Y00272681D01*
X02013063Y00272356D01*
X02012688Y00272040D01*
X02012305Y00271733D01*
X02011914Y00271436D01*
X02011516Y00271148D01*
X02011111Y00270871D01*
X02010700Y00270603D01*
X02010282Y00270345D01*
X02009858Y00270098D01*
X02009428Y00269862D01*
X02008992Y00269636D01*
X02008551Y00269420D01*
X02008105Y00269216D01*
X02007654Y00269022D01*
X02007198Y00268840D01*
X02006738Y00268669D01*
X02006274Y00268509D01*
X02005806Y00268361D01*
X02005334Y00268224D01*
X02004860Y00268099D01*
X02004382Y00267986D01*
X02003902Y00267884D01*
X02003419Y00267794D01*
X02002935Y00267716D01*
X02002448Y00267650D01*
X02001960Y00267596D01*
X02001471Y00267554D01*
X02000981Y00267524D01*
X02000491Y00267506D01*
X02000000Y00267500D01*
X01999509Y00267506D01*
X01999019Y00267524D01*
X01998529Y00267554D01*
X01998040Y00267596D01*
X01997552Y00267650D01*
X01997065Y00267716D01*
X01996581Y00267794D01*
X01996098Y00267884D01*
X01995618Y00267986D01*
X01995140Y00268099D01*
X01994666Y00268224D01*
X01994194Y00268361D01*
X01993726Y00268509D01*
X01993262Y00268669D01*
X01992802Y00268840D01*
X01992346Y00269022D01*
X01991895Y00269216D01*
X01991449Y00269420D01*
X01991008Y00269636D01*
X01990572Y00269862D01*
X01990142Y00270098D01*
X01989718Y00270345D01*
X01989300Y00270603D01*
X01988889Y00270871D01*
X01988484Y00271148D01*
X01988086Y00271436D01*
X01987695Y00271733D01*
X01987312Y00272040D01*
X01986937Y00272356D01*
X01986569Y00272681D01*
X01986209Y00273015D01*
X01985858Y00273358D01*
X01985515Y00273709D01*
X01985181Y00274069D01*
X01984856Y00274437D01*
X01984540Y00274812D01*
X01984233Y00275195D01*
X01983936Y00275586D01*
X01983648Y00275984D01*
X01983371Y00276389D01*
X01983103Y00276800D01*
X01982845Y00277218D01*
X01982598Y00277642D01*
X01982362Y00278072D01*
X01982136Y00278508D01*
X01981920Y00278949D01*
X01981716Y00279395D01*
X01981522Y00279846D01*
X01981340Y00280302D01*
X01981169Y00280762D01*
X01981009Y00281226D01*
X01980861Y00281694D01*
X01980724Y00282166D01*
X01980599Y00282640D01*
X01980486Y00283118D01*
X01980384Y00283598D01*
X01980294Y00284081D01*
X01980216Y00284565D01*
X01980150Y00285052D01*
X01980096Y00285540D01*
X01980054Y00286029D01*
X01980024Y00286519D01*
X01980006Y00287009D01*
X01980000Y00287500D01*
X02080000Y00287500D02*
X02080006Y00287991D01*
X02080024Y00288481D01*
X02080054Y00288971D01*
X02080096Y00289460D01*
X02080150Y00289948D01*
X02080216Y00290435D01*
X02080294Y00290919D01*
X02080384Y00291402D01*
X02080486Y00291882D01*
X02080599Y00292360D01*
X02080724Y00292834D01*
X02080861Y00293306D01*
X02081009Y00293774D01*
X02081169Y00294238D01*
X02081340Y00294698D01*
X02081522Y00295154D01*
X02081716Y00295605D01*
X02081920Y00296051D01*
X02082136Y00296492D01*
X02082362Y00296928D01*
X02082598Y00297358D01*
X02082845Y00297782D01*
X02083103Y00298200D01*
X02083371Y00298611D01*
X02083648Y00299016D01*
X02083936Y00299414D01*
X02084233Y00299805D01*
X02084540Y00300188D01*
X02084856Y00300563D01*
X02085181Y00300931D01*
X02085515Y00301291D01*
X02085858Y00301642D01*
X02086209Y00301985D01*
X02086569Y00302319D01*
X02086937Y00302644D01*
X02087312Y00302960D01*
X02087695Y00303267D01*
X02088086Y00303564D01*
X02088484Y00303852D01*
X02088889Y00304129D01*
X02089300Y00304397D01*
X02089718Y00304655D01*
X02090142Y00304902D01*
X02090572Y00305138D01*
X02091008Y00305364D01*
X02091449Y00305580D01*
X02091895Y00305784D01*
X02092346Y00305978D01*
X02092802Y00306160D01*
X02093262Y00306331D01*
X02093726Y00306491D01*
X02094194Y00306639D01*
X02094666Y00306776D01*
X02095140Y00306901D01*
X02095618Y00307014D01*
X02096098Y00307116D01*
X02096581Y00307206D01*
X02097065Y00307284D01*
X02097552Y00307350D01*
X02098040Y00307404D01*
X02098529Y00307446D01*
X02099019Y00307476D01*
X02099509Y00307494D01*
X02100000Y00307500D01*
X02100491Y00307494D01*
X02100981Y00307476D01*
X02101471Y00307446D01*
X02101960Y00307404D01*
X02102448Y00307350D01*
X02102935Y00307284D01*
X02103419Y00307206D01*
X02103902Y00307116D01*
X02104382Y00307014D01*
X02104860Y00306901D01*
X02105334Y00306776D01*
X02105806Y00306639D01*
X02106274Y00306491D01*
X02106738Y00306331D01*
X02107198Y00306160D01*
X02107654Y00305978D01*
X02108105Y00305784D01*
X02108551Y00305580D01*
X02108992Y00305364D01*
X02109428Y00305138D01*
X02109858Y00304902D01*
X02110282Y00304655D01*
X02110700Y00304397D01*
X02111111Y00304129D01*
X02111516Y00303852D01*
X02111914Y00303564D01*
X02112305Y00303267D01*
X02112688Y00302960D01*
X02113063Y00302644D01*
X02113431Y00302319D01*
X02113791Y00301985D01*
X02114142Y00301642D01*
X02114485Y00301291D01*
X02114819Y00300931D01*
X02115144Y00300563D01*
X02115460Y00300188D01*
X02115767Y00299805D01*
X02116064Y00299414D01*
X02116352Y00299016D01*
X02116629Y00298611D01*
X02116897Y00298200D01*
X02117155Y00297782D01*
X02117402Y00297358D01*
X02117638Y00296928D01*
X02117864Y00296492D01*
X02118080Y00296051D01*
X02118284Y00295605D01*
X02118478Y00295154D01*
X02118660Y00294698D01*
X02118831Y00294238D01*
X02118991Y00293774D01*
X02119139Y00293306D01*
X02119276Y00292834D01*
X02119401Y00292360D01*
X02119514Y00291882D01*
X02119616Y00291402D01*
X02119706Y00290919D01*
X02119784Y00290435D01*
X02119850Y00289948D01*
X02119904Y00289460D01*
X02119946Y00288971D01*
X02119976Y00288481D01*
X02119994Y00287991D01*
X02120000Y00287500D01*
X02119994Y00287009D01*
X02119976Y00286519D01*
X02119946Y00286029D01*
X02119904Y00285540D01*
X02119850Y00285052D01*
X02119784Y00284565D01*
X02119706Y00284081D01*
X02119616Y00283598D01*
X02119514Y00283118D01*
X02119401Y00282640D01*
X02119276Y00282166D01*
X02119139Y00281694D01*
X02118991Y00281226D01*
X02118831Y00280762D01*
X02118660Y00280302D01*
X02118478Y00279846D01*
X02118284Y00279395D01*
X02118080Y00278949D01*
X02117864Y00278508D01*
X02117638Y00278072D01*
X02117402Y00277642D01*
X02117155Y00277218D01*
X02116897Y00276800D01*
X02116629Y00276389D01*
X02116352Y00275984D01*
X02116064Y00275586D01*
X02115767Y00275195D01*
X02115460Y00274812D01*
X02115144Y00274437D01*
X02114819Y00274069D01*
X02114485Y00273709D01*
X02114142Y00273358D01*
X02113791Y00273015D01*
X02113431Y00272681D01*
X02113063Y00272356D01*
X02112688Y00272040D01*
X02112305Y00271733D01*
X02111914Y00271436D01*
X02111516Y00271148D01*
X02111111Y00270871D01*
X02110700Y00270603D01*
X02110282Y00270345D01*
X02109858Y00270098D01*
X02109428Y00269862D01*
X02108992Y00269636D01*
X02108551Y00269420D01*
X02108105Y00269216D01*
X02107654Y00269022D01*
X02107198Y00268840D01*
X02106738Y00268669D01*
X02106274Y00268509D01*
X02105806Y00268361D01*
X02105334Y00268224D01*
X02104860Y00268099D01*
X02104382Y00267986D01*
X02103902Y00267884D01*
X02103419Y00267794D01*
X02102935Y00267716D01*
X02102448Y00267650D01*
X02101960Y00267596D01*
X02101471Y00267554D01*
X02100981Y00267524D01*
X02100491Y00267506D01*
X02100000Y00267500D01*
X02099509Y00267506D01*
X02099019Y00267524D01*
X02098529Y00267554D01*
X02098040Y00267596D01*
X02097552Y00267650D01*
X02097065Y00267716D01*
X02096581Y00267794D01*
X02096098Y00267884D01*
X02095618Y00267986D01*
X02095140Y00268099D01*
X02094666Y00268224D01*
X02094194Y00268361D01*
X02093726Y00268509D01*
X02093262Y00268669D01*
X02092802Y00268840D01*
X02092346Y00269022D01*
X02091895Y00269216D01*
X02091449Y00269420D01*
X02091008Y00269636D01*
X02090572Y00269862D01*
X02090142Y00270098D01*
X02089718Y00270345D01*
X02089300Y00270603D01*
X02088889Y00270871D01*
X02088484Y00271148D01*
X02088086Y00271436D01*
X02087695Y00271733D01*
X02087312Y00272040D01*
X02086937Y00272356D01*
X02086569Y00272681D01*
X02086209Y00273015D01*
X02085858Y00273358D01*
X02085515Y00273709D01*
X02085181Y00274069D01*
X02084856Y00274437D01*
X02084540Y00274812D01*
X02084233Y00275195D01*
X02083936Y00275586D01*
X02083648Y00275984D01*
X02083371Y00276389D01*
X02083103Y00276800D01*
X02082845Y00277218D01*
X02082598Y00277642D01*
X02082362Y00278072D01*
X02082136Y00278508D01*
X02081920Y00278949D01*
X02081716Y00279395D01*
X02081522Y00279846D01*
X02081340Y00280302D01*
X02081169Y00280762D01*
X02081009Y00281226D01*
X02080861Y00281694D01*
X02080724Y00282166D01*
X02080599Y00282640D01*
X02080486Y00283118D01*
X02080384Y00283598D01*
X02080294Y00284081D01*
X02080216Y00284565D01*
X02080150Y00285052D01*
X02080096Y00285540D01*
X02080054Y00286029D01*
X02080024Y00286519D01*
X02080006Y00287009D01*
X02080000Y00287500D01*
M02*
