G75*
%MOIN*%
%OFA0B0*%
%FSLAX26Y26*%
%IPPOS*%
%LPD*%
%AMOC8*
5,1,8,0,0,1.08239X$1,22.5*
%
%ADD10C,0.073000*%
%ADD11C,0.189000*%
%ADD12OC8,0.189000*%
%ADD13C,0.086000*%
%ADD14C,0.063118*%
%ADD15C,0.082000*%
%ADD16C,0.082000*%
%ADD17C,0.048000*%
%ADD18C,0.078000*%
%ADD19R,0.047622X0.047622*%
D10*
X00901575Y01625000D03*
X01098425Y01625000D03*
X01450000Y02101575D03*
X01450000Y02298425D03*
X02114075Y01650000D03*
X02310925Y01650000D03*
X02612500Y02126575D03*
X02612500Y02323425D03*
X03314075Y01637500D03*
X03510925Y01637500D03*
X00262500Y02101575D03*
X00262500Y02298425D03*
D11*
X00287500Y00462500D03*
D12*
X00687500Y00462500D03*
D13*
X00575000Y01637500D03*
X00575000Y01850000D03*
X00812500Y01862500D03*
X01212500Y01862500D03*
X01450000Y01862500D03*
X01437500Y01662500D03*
X01837500Y01662500D03*
X01850000Y01862500D03*
X02025000Y01850000D03*
X02425000Y01850000D03*
X02612500Y01862500D03*
X02612500Y01662500D03*
X03012500Y01662500D03*
X03012500Y01862500D03*
X03212500Y01862500D03*
X03612500Y01862500D03*
X00175000Y01850000D03*
X00175000Y01637500D03*
D14*
X00837500Y01237500D03*
X00937500Y01237500D03*
X01037500Y01237500D03*
X01137500Y01237500D03*
X01137500Y00937500D03*
X01037500Y00937500D03*
X00937500Y00937500D03*
X00837500Y00937500D03*
X01650000Y00925000D03*
X01750000Y00925000D03*
X01850000Y00925000D03*
X01950000Y00925000D03*
X01950000Y01225000D03*
X01850000Y01225000D03*
X01750000Y01225000D03*
X01650000Y01225000D03*
X02450000Y01200000D03*
X02550000Y01200000D03*
X02650000Y01200000D03*
X02750000Y01200000D03*
X02750000Y00900000D03*
X02650000Y00900000D03*
X02550000Y00900000D03*
X02450000Y00900000D03*
D15*
X02650000Y00374500D02*
X02650000Y00300500D01*
X02850000Y00300500D02*
X02850000Y00374500D01*
X03050000Y00374500D02*
X03050000Y00300500D01*
X03413000Y00725000D02*
X03487000Y00725000D01*
X03487000Y00925000D02*
X03413000Y00925000D01*
X03413000Y01125000D02*
X03487000Y01125000D01*
X02100000Y00324500D02*
X02100000Y00250500D01*
X02000000Y00250500D02*
X02000000Y00324500D01*
X01900000Y00324500D02*
X01900000Y00250500D01*
X01800000Y00250500D02*
X01800000Y00324500D01*
X01700000Y00324500D02*
X01700000Y00250500D01*
X01600000Y00250500D02*
X01600000Y00324500D01*
X01500000Y00324500D02*
X01500000Y00250500D01*
X01525000Y02563000D02*
X01525000Y02637000D01*
X01625000Y02637000D02*
X01625000Y02563000D01*
X01725000Y02563000D02*
X01725000Y02637000D01*
X02100000Y02649500D02*
X02100000Y02575500D01*
X02200000Y02575500D02*
X02200000Y02649500D01*
X02300000Y02649500D02*
X02300000Y02575500D01*
X02637500Y02575500D02*
X02637500Y02649500D01*
X02737500Y02649500D02*
X02737500Y02575500D01*
X02837500Y02575500D02*
X02837500Y02649500D01*
X03225000Y02649500D02*
X03225000Y02575500D01*
X03325000Y02575500D02*
X03325000Y02649500D01*
X03425000Y02649500D02*
X03425000Y02575500D01*
X01112500Y02563000D02*
X01112500Y02637000D01*
X01012500Y02637000D02*
X01012500Y02563000D01*
X00912500Y02563000D02*
X00912500Y02637000D01*
X00500000Y02637000D02*
X00500000Y02563000D01*
X00400000Y02563000D02*
X00400000Y02637000D01*
X00300000Y02637000D02*
X00300000Y02563000D01*
D16*
X00525000Y02350000D03*
X00525000Y02050000D03*
X00887500Y02200000D03*
X01187500Y02200000D03*
X01800000Y02337500D03*
X02062500Y02175000D03*
X01800000Y02037500D03*
X02362500Y02175000D03*
X02887500Y02050000D03*
X03150000Y02237500D03*
X02887500Y02350000D03*
X03450000Y02237500D03*
D17*
X02100000Y00287500D03*
X02000000Y00287500D03*
X01900000Y00287500D03*
X01800000Y00287500D03*
X01700000Y00287500D03*
X01600000Y00287500D03*
X01500000Y00287500D03*
D18*
X01462500Y00437500D03*
X01687500Y00462500D03*
X01800000Y00462500D03*
X01900000Y00462500D03*
X02087500Y00500000D03*
X02175000Y00412500D03*
X02550000Y00775000D03*
X02612500Y00562500D03*
X02862500Y00712500D03*
X02837500Y00825000D03*
X03075000Y00912500D03*
X02625000Y01287500D03*
X02287500Y01125000D03*
X02212500Y00900000D03*
X01850000Y00850000D03*
X01750000Y00850000D03*
X01512500Y01125000D03*
X01112500Y00850000D03*
X01025000Y00825000D03*
X00675000Y01075000D03*
X00387500Y01200000D03*
X00562500Y01500000D03*
X00250000Y01750000D03*
X00400000Y02337500D03*
X00975000Y01562500D03*
X01062500Y01500000D03*
X02037500Y01437500D03*
X02112500Y01750000D03*
X02512500Y01762500D03*
X02887500Y01912500D03*
X02775000Y02475000D03*
X03612500Y01725000D03*
X01625000Y02450000D03*
D19*
X03612500Y00150000D03*
M02*
