G75*
%MOIN*%
%OFA0B0*%
%FSLAX26Y26*%
%IPPOS*%
%LPD*%
%AMOC8*
5,1,8,0,0,1.08239X$1,22.5*
%
%ADD10C,0.065000*%
%ADD11C,0.181000*%
%ADD12OC8,0.181000*%
%ADD13C,0.078000*%
%ADD14C,0.055118*%
%ADD15C,0.074000*%
%ADD16C,0.074000*%
%ADD17C,0.070000*%
%ADD18C,0.050000*%
%ADD19R,0.039622X0.039622*%
D10*
X00901575Y01625000D03*
X01098425Y01625000D03*
X01450000Y02101575D03*
X01450000Y02298425D03*
X02114075Y01650000D03*
X02310925Y01650000D03*
X02612500Y02126575D03*
X02612500Y02323425D03*
X03314075Y01637500D03*
X03510925Y01637500D03*
X00262500Y02101575D03*
X00262500Y02298425D03*
D11*
X00287500Y00462500D03*
D12*
X00687500Y00462500D03*
D13*
X00575000Y01637500D03*
X00575000Y01850000D03*
X00812500Y01862500D03*
X01212500Y01862500D03*
X01450000Y01862500D03*
X01437500Y01662500D03*
X01837500Y01662500D03*
X01850000Y01862500D03*
X02025000Y01850000D03*
X02425000Y01850000D03*
X02612500Y01862500D03*
X02612500Y01662500D03*
X03012500Y01662500D03*
X03012500Y01862500D03*
X03212500Y01862500D03*
X03612500Y01862500D03*
X00175000Y01850000D03*
X00175000Y01637500D03*
D14*
X00837500Y01237500D03*
X00937500Y01237500D03*
X01037500Y01237500D03*
X01137500Y01237500D03*
X01137500Y00937500D03*
X01037500Y00937500D03*
X00937500Y00937500D03*
X00837500Y00937500D03*
X01650000Y00925000D03*
X01750000Y00925000D03*
X01850000Y00925000D03*
X01950000Y00925000D03*
X01950000Y01225000D03*
X01850000Y01225000D03*
X01750000Y01225000D03*
X01650000Y01225000D03*
X02450000Y01200000D03*
X02550000Y01200000D03*
X02650000Y01200000D03*
X02750000Y01200000D03*
X02750000Y00900000D03*
X02650000Y00900000D03*
X02550000Y00900000D03*
X02450000Y00900000D03*
D15*
X02650000Y00374500D02*
X02650000Y00300500D01*
X02850000Y00300500D02*
X02850000Y00374500D01*
X03050000Y00374500D02*
X03050000Y00300500D01*
X03413000Y00725000D02*
X03487000Y00725000D01*
X03487000Y00925000D02*
X03413000Y00925000D01*
X03413000Y01125000D02*
X03487000Y01125000D01*
X02100000Y00324500D02*
X02100000Y00250500D01*
X02000000Y00250500D02*
X02000000Y00324500D01*
X01900000Y00324500D02*
X01900000Y00250500D01*
X01800000Y00250500D02*
X01800000Y00324500D01*
X01700000Y00324500D02*
X01700000Y00250500D01*
X01600000Y00250500D02*
X01600000Y00324500D01*
X01500000Y00324500D02*
X01500000Y00250500D01*
X01525000Y02563000D02*
X01525000Y02637000D01*
X01625000Y02637000D02*
X01625000Y02563000D01*
X01725000Y02563000D02*
X01725000Y02637000D01*
X02100000Y02649500D02*
X02100000Y02575500D01*
X02200000Y02575500D02*
X02200000Y02649500D01*
X02300000Y02649500D02*
X02300000Y02575500D01*
X02637500Y02575500D02*
X02637500Y02649500D01*
X02737500Y02649500D02*
X02737500Y02575500D01*
X02837500Y02575500D02*
X02837500Y02649500D01*
X03225000Y02649500D02*
X03225000Y02575500D01*
X03325000Y02575500D02*
X03325000Y02649500D01*
X03425000Y02649500D02*
X03425000Y02575500D01*
X01112500Y02563000D02*
X01112500Y02637000D01*
X01012500Y02637000D02*
X01012500Y02563000D01*
X00912500Y02563000D02*
X00912500Y02637000D01*
X00500000Y02637000D02*
X00500000Y02563000D01*
X00400000Y02563000D02*
X00400000Y02637000D01*
X00300000Y02637000D02*
X00300000Y02563000D01*
D16*
X00525000Y02350000D03*
X00525000Y02050000D03*
X00887500Y02200000D03*
X01187500Y02200000D03*
X01800000Y02337500D03*
X02062500Y02175000D03*
X01800000Y02037500D03*
X02362500Y02175000D03*
X02887500Y02050000D03*
X03150000Y02237500D03*
X02887500Y02350000D03*
X03450000Y02237500D03*
D17*
X02887500Y01912500D03*
X02512500Y01762500D03*
X02112500Y01750000D03*
X02037500Y01437500D03*
X02287500Y01125000D03*
X02212500Y00900000D03*
X02550000Y00775000D03*
X02612500Y00562500D03*
X02862500Y00712500D03*
X02837500Y00825000D03*
X03075000Y00912500D03*
X02625000Y01287500D03*
X01850000Y00850000D03*
X01750000Y00850000D03*
X01512500Y01125000D03*
X01112500Y00850000D03*
X01025000Y00825000D03*
X00675000Y01075000D03*
X00387500Y01200000D03*
X00562500Y01500000D03*
X00250000Y01750000D03*
X00400000Y02337500D03*
X00975000Y01562500D03*
X01062500Y01500000D03*
X01625000Y02450000D03*
X02775000Y02475000D03*
X03612500Y01725000D03*
X02175000Y00412500D03*
X02087500Y00500000D03*
X01900000Y00462500D03*
X01800000Y00462500D03*
X01687500Y00462500D03*
X01462500Y00437500D03*
D18*
X01450000Y00425000D01*
X01375000Y00425000D01*
X01375000Y00462500D01*
X01337500Y00512500D01*
X01025000Y00825000D01*
X01112500Y00850000D02*
X01437500Y00525000D01*
X01625000Y00525000D01*
X01687500Y00462500D01*
X01800000Y00462500D02*
X01800000Y00675000D01*
X01750000Y00725000D01*
X01750000Y00850000D01*
X01850000Y00850000D02*
X01850000Y00750000D01*
X01900000Y00700000D01*
X01900000Y00462500D01*
X02087500Y00500000D02*
X02087500Y00537500D01*
X02325000Y00775000D01*
X02550000Y00775000D01*
X02612500Y00562500D02*
X02325000Y00562500D01*
X02175000Y00412500D01*
X02212500Y00900000D02*
X02100000Y00900000D01*
X01975000Y01025000D01*
X01450000Y01025000D01*
X01375000Y01100000D01*
X01375000Y01162500D01*
X01425000Y01212500D01*
X01512500Y01125000D01*
X01425000Y01212500D02*
X01393750Y01243750D01*
X01675000Y01550000D01*
X01862500Y01550000D01*
X02062500Y01725000D01*
X02112500Y01750000D01*
X02150000Y01950000D02*
X01950000Y02150000D01*
X01950000Y02437500D01*
X01937500Y02450000D01*
X01625000Y02450000D01*
X01912500Y02550000D02*
X01912500Y02700000D01*
X01850000Y02762500D01*
X00187500Y02762500D01*
X00075000Y02650000D01*
X00075000Y02112500D01*
X00200000Y01987500D01*
X00162500Y01987500D01*
X00075000Y01900000D01*
X00075000Y01525000D01*
X00087500Y01512500D01*
X00450000Y01512500D01*
X00512500Y01450000D01*
X00562500Y01500000D01*
X00512500Y01450000D02*
X00387500Y01325000D01*
X00387500Y01200000D01*
X00675000Y01250000D02*
X00675000Y01075000D01*
X00675000Y01250000D02*
X00750000Y01325000D01*
X01112500Y01325000D01*
X01162500Y01375000D01*
X01162500Y01512500D01*
X01250000Y01600000D01*
X01250000Y01700000D01*
X01237500Y01712500D01*
X01000000Y01712500D01*
X01000000Y01612500D01*
X00975000Y01587500D01*
X00975000Y01562500D01*
X01062500Y01500000D02*
X01050000Y01400000D01*
X00862500Y01400000D01*
X00762500Y01550000D01*
X00737500Y01575000D01*
X00655000Y01740000D01*
X00675000Y01760000D01*
X00675000Y01925000D01*
X00775000Y02025000D01*
X01275000Y02025000D01*
X01325000Y01975000D01*
X01325000Y01962500D01*
X01343750Y01943750D01*
X01343750Y01556250D01*
X01250000Y01462500D01*
X01250000Y01387500D01*
X01393750Y01243750D01*
X01950000Y01387500D02*
X01950000Y01487500D01*
X02000000Y01537500D01*
X03087500Y01537500D01*
X03112500Y01562500D01*
X03112500Y02025000D01*
X03000000Y02025000D01*
X02887500Y01912500D01*
X02512500Y01950000D02*
X02512500Y01762500D01*
X02512500Y01950000D02*
X02512500Y02012500D01*
X02475000Y02050000D01*
X02475000Y02675000D01*
X02525000Y02750000D01*
X03025000Y02750000D01*
X03025000Y02475000D01*
X03000000Y02450000D01*
X02987500Y02462500D01*
X02787500Y02462500D01*
X02775000Y02475000D01*
X03000000Y02450000D02*
X03125000Y02325000D01*
X03687500Y02325000D01*
X03687500Y01750000D01*
X03687500Y01587500D01*
X03425000Y01325000D01*
X03200000Y01325000D01*
X03200000Y00800000D01*
X03112500Y00712500D01*
X02862500Y00712500D01*
X02837500Y00825000D02*
X02837500Y00900000D01*
X02937500Y01000000D01*
X02937500Y01025000D01*
X02925000Y01037500D01*
X02300000Y01037500D01*
X02287500Y01125000D01*
X02050000Y01287500D02*
X01950000Y01387500D01*
X02037500Y01437500D02*
X02100000Y01375000D01*
X02812500Y01375000D01*
X03075000Y01112500D01*
X03075000Y00912500D01*
X02625000Y01287500D02*
X02050000Y01287500D01*
X02150000Y01950000D02*
X02512500Y01950000D01*
X01950000Y02450000D02*
X01937500Y02525000D01*
X01912500Y02550000D01*
X00650000Y01750000D02*
X00655000Y01740000D01*
X00650000Y01750000D02*
X00250000Y01750000D01*
X00200000Y01987500D02*
X00337500Y01987500D01*
X00400000Y02050000D01*
X00400000Y02337500D01*
X03612500Y01725000D02*
X03687500Y01750000D01*
D19*
X03612500Y00150000D03*
M02*
