G75*
%MOIN*%
%OFA0B0*%
%FSLAX26Y26*%
%IPPOS*%
%LPD*%
%AMOC8*
5,1,8,0,0,1.08239X$1,22.5*
%
%ADD10C,0.065000*%
%ADD11C,0.078000*%
%ADD12C,0.055118*%
%ADD13C,0.074000*%
%ADD14C,0.055433*%
%ADD15C,0.060000*%
%ADD16C,0.074000*%
%ADD17C,0.030000*%
%ADD18C,0.016000*%
D10*
X00401575Y00550000D03*
X00351575Y00700000D03*
X00548425Y00700000D03*
X00598425Y00550000D03*
X01650000Y00701575D03*
X01650000Y00898425D03*
D11*
X01200000Y01450000D03*
X00800000Y01450000D03*
X00550000Y01450000D03*
X00150000Y01450000D03*
X00150000Y00900000D03*
X00550000Y00900000D03*
D12*
X00850000Y00950000D03*
X00950000Y00950000D03*
X01050000Y00950000D03*
X01150000Y00950000D03*
X01150000Y00650000D03*
X01050000Y00650000D03*
X00950000Y00650000D03*
X00850000Y00650000D03*
D13*
X00550000Y00287000D02*
X00550000Y00213000D01*
X00450000Y00213000D02*
X00450000Y00287000D01*
X00350000Y00287000D02*
X00350000Y00213000D01*
X00250000Y00213000D02*
X00250000Y00287000D01*
D14*
X00875000Y00277717D02*
X00875000Y00222283D01*
X01075000Y00222283D02*
X01075000Y00277717D01*
X01525000Y00277717D02*
X01525000Y00222283D01*
X01725000Y00222283D02*
X01725000Y00277717D01*
D15*
X01600000Y01170000D02*
X01600000Y01230000D01*
X01500000Y01230000D02*
X01500000Y01170000D01*
X01400000Y01170000D02*
X01400000Y01230000D01*
X00550000Y01230000D02*
X00550000Y01170000D01*
X00450000Y01170000D02*
X00450000Y01230000D01*
X00350000Y01230000D02*
X00350000Y01170000D01*
D16*
X00850000Y01200000D03*
X01150000Y01200000D03*
X01400000Y00950000D03*
X01400000Y00650000D03*
D17*
X01150000Y00900000D01*
X01150000Y00950000D01*
X01050000Y00950000D02*
X00975000Y00875000D01*
X00950000Y00875000D01*
X00700000Y00625000D01*
X00500000Y00625000D01*
X00400000Y00725000D01*
X00375000Y00700000D01*
X00351575Y00700000D01*
X00400000Y00725000D02*
X00425000Y00750000D01*
X00200000Y00975000D01*
X00100000Y00975000D01*
X00075000Y00950000D01*
X00075000Y00275000D01*
X00275000Y00075000D01*
X01025000Y00075000D01*
X01200000Y00250000D01*
X01525000Y00250000D01*
X01600000Y00250000D01*
X01700000Y00150000D01*
X01750000Y00150000D01*
X01800000Y00200000D01*
X01800000Y01125000D01*
X01625000Y01300000D01*
X01575000Y01300000D01*
X01500000Y01225000D01*
X01500000Y01200000D01*
X01400000Y01200000D02*
X01400000Y00950000D01*
X01325000Y00875000D02*
X01525000Y00675000D01*
X01650000Y00800000D01*
X01650000Y00898425D01*
X01725000Y00925000D02*
X01725000Y00800000D01*
X01650000Y00725000D01*
X01650000Y00701575D01*
X01650000Y00700000D01*
X01725000Y00625000D01*
X01725000Y00500000D01*
X01150000Y00500000D01*
X01150000Y00650000D01*
X01175000Y00725000D02*
X00925000Y00725000D01*
X00850000Y00650000D01*
X00800000Y00650000D01*
X00625000Y00475000D01*
X00500000Y00475000D01*
X00350000Y00325000D01*
X00350000Y00250000D01*
X00250000Y00250000D02*
X00250000Y00200000D01*
X00325000Y00125000D01*
X00950000Y00125000D01*
X01075000Y00250000D01*
X01150000Y00325000D01*
X01150000Y00500000D01*
X01050000Y00650000D02*
X00650000Y00250000D01*
X00550000Y00250000D01*
X00450000Y00250000D02*
X00450000Y00300000D01*
X00525000Y00375000D01*
X00675000Y00375000D01*
X00950000Y00650000D01*
X01175000Y00725000D02*
X01325000Y00575000D01*
X01450000Y00575000D01*
X01475000Y00600000D01*
X01475000Y00625000D01*
X01525000Y00675000D01*
X01725000Y00500000D02*
X01725000Y00250000D01*
X01325000Y00875000D02*
X01325000Y01150000D01*
X01100000Y01375000D01*
X00925000Y01375000D01*
X00850000Y01450000D01*
X00800000Y01450000D01*
X00750000Y01450000D01*
X00625000Y01575000D01*
X00275000Y01575000D01*
X00150000Y01450000D01*
X00150000Y01275000D01*
X00325000Y01100000D01*
X00375000Y01100000D01*
X00450000Y01175000D01*
X00450000Y01200000D01*
X00350000Y01200000D02*
X00350000Y01375000D01*
X00500000Y01525000D01*
X00600000Y01525000D01*
X00800000Y01325000D01*
X01025000Y01325000D01*
X01150000Y01200000D01*
X01050000Y01125000D02*
X00900000Y01275000D01*
X00625000Y01275000D01*
X00550000Y01350000D01*
X00550000Y01450000D01*
X00625000Y01275000D02*
X00550000Y01200000D01*
X00625000Y00975000D02*
X00375000Y00975000D01*
X00075000Y01275000D01*
X00075000Y01500000D01*
X00200000Y01625000D01*
X00750000Y01625000D01*
X00925000Y01450000D01*
X01200000Y01450000D01*
X00850000Y01200000D02*
X00950000Y01100000D01*
X00950000Y00950000D01*
X00850000Y00950000D02*
X00800000Y00950000D01*
X00725000Y00875000D01*
X00625000Y00975000D01*
X00550000Y00900000D02*
X00550000Y00875000D01*
X00425000Y00750000D01*
X00548425Y00700000D02*
X00550000Y00700000D01*
X00725000Y00875000D01*
X00425000Y00625000D02*
X00325000Y00625000D01*
X00250000Y00550000D01*
X00250000Y00250000D01*
X00500000Y00475000D02*
X00425000Y00550000D01*
X00401575Y00550000D01*
X00425000Y00625000D02*
X00500000Y00550000D01*
X00598425Y00550000D01*
X00325000Y00625000D02*
X00150000Y00800000D01*
X00150000Y00900000D01*
X01050000Y00950000D02*
X01050000Y01125000D01*
X01600000Y01050000D02*
X01725000Y00925000D01*
X01600000Y01050000D02*
X01600000Y01200000D01*
D18*
X00195000Y00215811D02*
X00118000Y00292811D01*
X00118000Y00852794D01*
X00120125Y00851249D01*
X00128119Y00847176D01*
X00136652Y00844404D01*
X00145514Y00843000D01*
X00148157Y00843000D01*
X00148157Y00898157D01*
X00151843Y00898157D01*
X00151843Y00901843D01*
X00207000Y00901843D01*
X00207000Y00904486D01*
X00206491Y00907698D01*
X00353689Y00760500D01*
X00339540Y00760500D01*
X00317304Y00751289D01*
X00300285Y00734270D01*
X00291075Y00712034D01*
X00291075Y00687966D01*
X00300285Y00665729D01*
X00317304Y00648711D01*
X00339540Y00639500D01*
X00363609Y00639500D01*
X00385845Y00648711D01*
X00400662Y00663527D01*
X00463546Y00600642D01*
X00475642Y00588546D01*
X00491447Y00582000D01*
X00559253Y00582000D01*
X00555234Y00576468D01*
X00551625Y00569385D01*
X00549169Y00561825D01*
X00547925Y00553974D01*
X00547925Y00550000D01*
X00598424Y00550000D01*
X00598424Y00549999D01*
X00547925Y00549999D01*
X00547925Y00546025D01*
X00549169Y00538174D01*
X00551625Y00530615D01*
X00555234Y00523532D01*
X00559253Y00518000D01*
X00517811Y00518000D01*
X00461453Y00574358D01*
X00453800Y00582011D01*
X00452864Y00584270D01*
X00435845Y00601289D01*
X00413609Y00610500D01*
X00389540Y00610500D01*
X00367304Y00601289D01*
X00350285Y00584270D01*
X00341075Y00562034D01*
X00341075Y00537966D01*
X00350285Y00515729D01*
X00367304Y00498711D01*
X00389540Y00489500D01*
X00413609Y00489500D01*
X00421444Y00492745D01*
X00439189Y00475000D01*
X00313546Y00349358D01*
X00308676Y00337600D01*
X00294896Y00323820D01*
X00293566Y00320608D01*
X00291952Y00322830D01*
X00285830Y00328952D01*
X00278826Y00334040D01*
X00271113Y00337970D01*
X00262879Y00340646D01*
X00254329Y00342000D01*
X00253000Y00342000D01*
X00253000Y00253001D01*
X00247000Y00253001D01*
X00247000Y00342000D01*
X00245671Y00342000D01*
X00237121Y00340646D01*
X00228887Y00337970D01*
X00221174Y00334040D01*
X00214170Y00328952D01*
X00208048Y00322830D01*
X00202960Y00315826D01*
X00199030Y00308113D01*
X00196354Y00299879D01*
X00195000Y00291329D01*
X00195000Y00253000D01*
X00246999Y00253000D01*
X00246999Y00247000D01*
X00195000Y00247000D01*
X00195000Y00215811D01*
X00195000Y00223979D02*
X00186832Y00223979D01*
X00195000Y00239978D02*
X00170833Y00239978D01*
X00154835Y00255976D02*
X00195000Y00255976D01*
X00195000Y00271975D02*
X00138836Y00271975D01*
X00122838Y00287973D02*
X00195000Y00287973D01*
X00197684Y00303972D02*
X00118000Y00303972D01*
X00118000Y00319970D02*
X00205971Y00319970D01*
X00224959Y00335969D02*
X00118000Y00335969D01*
X00118000Y00351968D02*
X00316156Y00351968D01*
X00307045Y00335969D02*
X00275041Y00335969D01*
X00253000Y00335969D02*
X00247000Y00335969D01*
X00247000Y00319970D02*
X00253000Y00319970D01*
X00253000Y00303972D02*
X00247000Y00303972D01*
X00247000Y00287973D02*
X00253000Y00287973D01*
X00253000Y00271975D02*
X00247000Y00271975D01*
X00247000Y00255976D02*
X00253000Y00255976D01*
X00253000Y00246999D02*
X00253000Y00158000D01*
X00254329Y00158000D01*
X00262879Y00159354D01*
X00271113Y00162030D01*
X00278826Y00165960D01*
X00285830Y00171048D01*
X00291952Y00177170D01*
X00293566Y00179392D01*
X00294896Y00176180D01*
X00313180Y00157896D01*
X00337071Y00148000D01*
X00362929Y00148000D01*
X00386820Y00157896D01*
X00400000Y00171076D01*
X00413180Y00157896D01*
X00437071Y00148000D01*
X00462929Y00148000D01*
X00486820Y00157896D01*
X00500000Y00171076D01*
X00513180Y00157896D01*
X00537071Y00148000D01*
X00562929Y00148000D01*
X00586820Y00157896D01*
X00605104Y00176180D01*
X00615000Y00200071D01*
X00615000Y00207000D01*
X00658553Y00207000D01*
X00674358Y00213546D01*
X00686453Y00225642D01*
X01055252Y00594441D01*
X01061051Y00594441D01*
X01081472Y00602899D01*
X01097101Y00618528D01*
X01105559Y00638949D01*
X01105559Y00639356D01*
X01105563Y00639331D01*
X01107779Y00632511D01*
X01111034Y00626122D01*
X01115250Y00620320D01*
X01120320Y00615250D01*
X01126122Y00611034D01*
X01132511Y00607779D01*
X01139331Y00605563D01*
X01146414Y00604441D01*
X01149999Y00604441D01*
X01149999Y00649999D01*
X01150000Y00649999D01*
X01150000Y00604441D01*
X01153586Y00604441D01*
X01160668Y00605563D01*
X01167489Y00607779D01*
X01173878Y00611034D01*
X01179680Y00615250D01*
X01184750Y00620320D01*
X01188966Y00626122D01*
X01192221Y00632511D01*
X01194437Y00639331D01*
X01195178Y00644011D01*
X01300642Y00538546D01*
X01316447Y00532000D01*
X01458553Y00532000D01*
X01474358Y00538546D01*
X01486453Y00550642D01*
X01511453Y00575642D01*
X01518000Y00591447D01*
X01518000Y00607189D01*
X01549357Y00638546D01*
X01549358Y00638546D01*
X01561453Y00650642D01*
X01600719Y00689907D01*
X01600743Y00689749D01*
X01603200Y00682189D01*
X01606809Y00675107D01*
X01611481Y00668676D01*
X01617101Y00663055D01*
X01623532Y00658383D01*
X01630615Y00654775D01*
X01638174Y00652318D01*
X01646025Y00651075D01*
X01649999Y00651075D01*
X01649999Y00701573D01*
X01650000Y00701573D01*
X01650000Y00651075D01*
X01653974Y00651075D01*
X01661825Y00652318D01*
X01669385Y00654775D01*
X01676468Y00658383D01*
X01682898Y00663055D01*
X01688519Y00668676D01*
X01693191Y00675107D01*
X01696800Y00682189D01*
X01699256Y00689749D01*
X01700500Y00697600D01*
X01700500Y00701574D01*
X01650001Y00701574D01*
X01650001Y00701575D01*
X01700500Y00701575D01*
X01700500Y00705549D01*
X01699256Y00713400D01*
X01696800Y00720960D01*
X01693191Y00728043D01*
X01688519Y00734473D01*
X01682898Y00740094D01*
X01676468Y00744766D01*
X01669385Y00748375D01*
X01661825Y00750831D01*
X01661667Y00750856D01*
X01686453Y00775642D01*
X01693000Y00791447D01*
X01693000Y00855865D01*
X01701289Y00864155D01*
X01710500Y00886391D01*
X01710500Y00910459D01*
X01701289Y00932696D01*
X01684270Y00949715D01*
X01662034Y00958925D01*
X01637966Y00958925D01*
X01615729Y00949715D01*
X01598711Y00932696D01*
X01589500Y00910459D01*
X01589500Y00886391D01*
X01598711Y00864155D01*
X01607000Y00855865D01*
X01607000Y00817811D01*
X01525000Y00735811D01*
X01368000Y00892811D01*
X01368000Y00892899D01*
X01387071Y00885000D01*
X01412929Y00885000D01*
X01436820Y00894896D01*
X01455104Y00913180D01*
X01465000Y00937071D01*
X01465000Y00962929D01*
X01455104Y00986820D01*
X01443000Y00998924D01*
X01443000Y01130976D01*
X01449170Y01137146D01*
X01450000Y01139150D01*
X01450830Y01137146D01*
X01467146Y01120830D01*
X01488463Y01112000D01*
X01511537Y01112000D01*
X01532854Y01120830D01*
X01549170Y01137146D01*
X01555354Y01152075D01*
X01555517Y01151574D01*
X01558947Y01144843D01*
X01563388Y01138730D01*
X01568730Y01133388D01*
X01574843Y01128947D01*
X01581574Y01125517D01*
X01588760Y01123182D01*
X01596222Y01122000D01*
X01598000Y01122000D01*
X01598000Y01197999D01*
X01602000Y01197999D01*
X01602000Y01122000D01*
X01603778Y01122000D01*
X01611240Y01123182D01*
X01618426Y01125517D01*
X01625157Y01128947D01*
X01631270Y01133388D01*
X01636612Y01138730D01*
X01641053Y01144843D01*
X01644483Y01151574D01*
X01646818Y01158760D01*
X01648000Y01166222D01*
X01648000Y01198000D01*
X01602001Y01198000D01*
X01602001Y01202000D01*
X01648000Y01202000D01*
X01648000Y01216189D01*
X01757000Y01107189D01*
X01757000Y00310369D01*
X01754782Y00312587D01*
X01748961Y00316817D01*
X01742549Y00320084D01*
X01735705Y00322307D01*
X01728598Y00323433D01*
X01725858Y00323433D01*
X01725858Y00250859D01*
X01724141Y00250859D01*
X01724141Y00323433D01*
X01721402Y00323433D01*
X01714295Y00322307D01*
X01707451Y00320084D01*
X01701039Y00316817D01*
X01695218Y00312587D01*
X01690129Y00307499D01*
X01685900Y00301677D01*
X01682633Y00295266D01*
X01680409Y00288422D01*
X01679283Y00281314D01*
X01679283Y00250858D01*
X01724141Y00250858D01*
X01724141Y00249141D01*
X01679283Y00249141D01*
X01679283Y00231527D01*
X01624358Y00286453D01*
X01608553Y00293000D01*
X01578976Y00293000D01*
X01572234Y00309277D01*
X01556561Y00324951D01*
X01536083Y00333433D01*
X01513917Y00333433D01*
X01493439Y00324951D01*
X01477766Y00309277D01*
X01471023Y00293000D01*
X01191447Y00293000D01*
X01175642Y00286453D01*
X01120716Y00231527D01*
X01120716Y00249141D01*
X01075859Y00249141D01*
X01075859Y00250858D01*
X01120716Y00250858D01*
X01120716Y00281314D01*
X01119591Y00288422D01*
X01117367Y00295266D01*
X01114100Y00301677D01*
X01109871Y00307499D01*
X01104782Y00312587D01*
X01098961Y00316817D01*
X01092549Y00320084D01*
X01085705Y00322307D01*
X01078598Y00323433D01*
X01075858Y00323433D01*
X01075858Y00250859D01*
X01074141Y00250859D01*
X01074141Y00323433D01*
X01071402Y00323433D01*
X01064295Y00322307D01*
X01057451Y00320084D01*
X01051039Y00316817D01*
X01045218Y00312587D01*
X01040129Y00307499D01*
X01035900Y00301677D01*
X01032633Y00295266D01*
X01030409Y00288422D01*
X01029283Y00281314D01*
X01029283Y00250858D01*
X01074141Y00250858D01*
X01074141Y00249141D01*
X01029283Y00249141D01*
X01029283Y00218685D01*
X01030409Y00211578D01*
X01032633Y00204734D01*
X01035900Y00198323D01*
X01040129Y00192501D01*
X01045218Y00187413D01*
X01051039Y00183183D01*
X01057451Y00179916D01*
X01064295Y00177693D01*
X01066528Y00177339D01*
X01007189Y00118000D01*
X00292811Y00118000D01*
X00247000Y00163811D01*
X00247000Y00246999D01*
X00253000Y00246999D01*
X00253000Y00239978D02*
X00247000Y00239978D01*
X00247000Y00223979D02*
X00253000Y00223979D01*
X00253000Y00207981D02*
X00247000Y00207981D01*
X00247000Y00191982D02*
X00253000Y00191982D01*
X00253000Y00175984D02*
X00247000Y00175984D01*
X00250826Y00159985D02*
X00253000Y00159985D01*
X00264821Y00159985D02*
X00311091Y00159985D01*
X00295092Y00175984D02*
X00290765Y00175984D01*
X00266824Y00143987D02*
X01033176Y00143987D01*
X01049174Y00159985D02*
X00588909Y00159985D01*
X00604908Y00175984D02*
X00842505Y00175984D01*
X00843439Y00175049D02*
X00863917Y00166567D01*
X00886083Y00166567D01*
X00906561Y00175049D01*
X00922234Y00190723D01*
X00930716Y00211201D01*
X00930716Y00288799D01*
X00922234Y00309277D01*
X00906561Y00324951D01*
X00886083Y00333433D01*
X00863917Y00333433D01*
X00843439Y00324951D01*
X00827766Y00309277D01*
X00819283Y00288799D01*
X00819283Y00211201D01*
X00827766Y00190723D01*
X00843439Y00175049D01*
X00827244Y00191982D02*
X00611649Y00191982D01*
X00660921Y00207981D02*
X00820617Y00207981D01*
X00819283Y00223979D02*
X00684790Y00223979D01*
X00700789Y00239978D02*
X00819283Y00239978D01*
X00819283Y00255976D02*
X00716788Y00255976D01*
X00732786Y00271975D02*
X00819283Y00271975D01*
X00819283Y00287973D02*
X00748785Y00287973D01*
X00764783Y00303972D02*
X00825568Y00303972D01*
X00838459Y00319970D02*
X00780782Y00319970D01*
X00796780Y00335969D02*
X01757000Y00335969D01*
X01757000Y00319970D02*
X01742771Y00319970D01*
X01725858Y00319970D02*
X01724141Y00319970D01*
X01724141Y00303972D02*
X01725858Y00303972D01*
X01725858Y00287973D02*
X01724141Y00287973D01*
X01724141Y00271975D02*
X01725858Y00271975D01*
X01725858Y00255976D02*
X01724141Y00255976D01*
X01679283Y00255976D02*
X01654835Y00255976D01*
X01670833Y00239978D02*
X01679283Y00239978D01*
X01679283Y00271975D02*
X01638836Y00271975D01*
X01620688Y00287973D02*
X01680338Y00287973D01*
X01687567Y00303972D02*
X01574432Y00303972D01*
X01561541Y00319970D02*
X01707229Y00319970D01*
X01757000Y00351968D02*
X00812779Y00351968D01*
X00828777Y00367966D02*
X01757000Y00367966D01*
X01757000Y00383965D02*
X00844776Y00383965D01*
X00860774Y00399963D02*
X01757000Y00399963D01*
X01757000Y00415962D02*
X00876773Y00415962D01*
X00892771Y00431960D02*
X01757000Y00431960D01*
X01757000Y00447959D02*
X00908770Y00447959D01*
X00924768Y00463957D02*
X01757000Y00463957D01*
X01757000Y00479956D02*
X00940767Y00479956D01*
X00956765Y00495954D02*
X01757000Y00495954D01*
X01757000Y00511953D02*
X00972764Y00511953D01*
X00988762Y00527951D02*
X01757000Y00527951D01*
X01757000Y00543950D02*
X01479761Y00543950D01*
X01495759Y00559948D02*
X01757000Y00559948D01*
X01757000Y00575947D02*
X01511580Y00575947D01*
X01518000Y00591945D02*
X01757000Y00591945D01*
X01757000Y00607944D02*
X01518755Y00607944D01*
X01534753Y00623942D02*
X01757000Y00623942D01*
X01757000Y00639941D02*
X01550752Y00639941D01*
X01561453Y00650642D02*
X01561453Y00650642D01*
X01566750Y00655939D02*
X01628328Y00655939D01*
X01649999Y00655939D02*
X01650000Y00655939D01*
X01649999Y00671938D02*
X01650000Y00671938D01*
X01649999Y00687937D02*
X01650000Y00687937D01*
X01650000Y00701576D02*
X01650000Y00739189D01*
X01649999Y00739188D01*
X01649999Y00701576D01*
X01650000Y00701576D01*
X01649999Y00703935D02*
X01650000Y00703935D01*
X01649999Y00719934D02*
X01650000Y00719934D01*
X01649999Y00735932D02*
X01650000Y00735932D01*
X01662742Y00751931D02*
X01757000Y00751931D01*
X01757000Y00767929D02*
X01678740Y00767929D01*
X01689885Y00783928D02*
X01757000Y00783928D01*
X01757000Y00799926D02*
X01693000Y00799926D01*
X01693000Y00815925D02*
X01757000Y00815925D01*
X01757000Y00831923D02*
X01693000Y00831923D01*
X01693000Y00847922D02*
X01757000Y00847922D01*
X01757000Y00863920D02*
X01701055Y00863920D01*
X01707819Y00879919D02*
X01757000Y00879919D01*
X01757000Y00895917D02*
X01710500Y00895917D01*
X01709897Y00911916D02*
X01757000Y00911916D01*
X01757000Y00927914D02*
X01703270Y00927914D01*
X01690072Y00943913D02*
X01757000Y00943913D01*
X01757000Y00959911D02*
X01465000Y00959911D01*
X01465000Y00943913D02*
X01609928Y00943913D01*
X01596730Y00927914D02*
X01461207Y00927914D01*
X01453840Y00911916D02*
X01590103Y00911916D01*
X01589500Y00895917D02*
X01437841Y00895917D01*
X01396891Y00863920D02*
X01598945Y00863920D01*
X01592181Y00879919D02*
X01380892Y00879919D01*
X01412889Y00847922D02*
X01607000Y00847922D01*
X01607000Y00831923D02*
X01428888Y00831923D01*
X01444886Y00815925D02*
X01605114Y00815925D01*
X01589115Y00799926D02*
X01460885Y00799926D01*
X01476883Y00783928D02*
X01573117Y00783928D01*
X01557118Y00767929D02*
X01492882Y00767929D01*
X01508880Y00751931D02*
X01541120Y00751931D01*
X01525121Y00735932D02*
X01524879Y00735932D01*
X01582749Y00671938D02*
X01609111Y00671938D01*
X01601332Y00687937D02*
X01598748Y00687937D01*
X01671671Y00655939D02*
X01757000Y00655939D01*
X01757000Y00671938D02*
X01690889Y00671938D01*
X01698667Y00687937D02*
X01757000Y00687937D01*
X01757000Y00703935D02*
X01700500Y00703935D01*
X01697134Y00719934D02*
X01757000Y00719934D01*
X01757000Y00735932D02*
X01687060Y00735932D01*
X01757000Y00975910D02*
X01459623Y00975910D01*
X01450015Y00991908D02*
X01757000Y00991908D01*
X01757000Y01007907D02*
X01443000Y01007907D01*
X01443000Y01023906D02*
X01757000Y01023906D01*
X01757000Y01039904D02*
X01443000Y01039904D01*
X01443000Y01055903D02*
X01757000Y01055903D01*
X01757000Y01071901D02*
X01443000Y01071901D01*
X01443000Y01087900D02*
X01757000Y01087900D01*
X01757000Y01103898D02*
X01443000Y01103898D01*
X01443000Y01119897D02*
X01469399Y01119897D01*
X01452080Y01135895D02*
X01447919Y01135895D01*
X01530601Y01119897D02*
X01744292Y01119897D01*
X01728294Y01135895D02*
X01633777Y01135895D01*
X01644587Y01151894D02*
X01712295Y01151894D01*
X01696297Y01167892D02*
X01648000Y01167892D01*
X01648000Y01183891D02*
X01680298Y01183891D01*
X01664299Y01199889D02*
X01602001Y01199889D01*
X01602000Y01183891D02*
X01598000Y01183891D01*
X01598000Y01167892D02*
X01602000Y01167892D01*
X01602000Y01151894D02*
X01598000Y01151894D01*
X01598000Y01135895D02*
X01602000Y01135895D01*
X01566223Y01135895D02*
X01547920Y01135895D01*
X01555279Y01151894D02*
X01555413Y01151894D01*
X01648000Y01215888D02*
X01648301Y01215888D01*
X01199248Y00639941D02*
X01194534Y00639941D01*
X01187382Y00623942D02*
X01215246Y00623942D01*
X01231245Y00607944D02*
X01167813Y00607944D01*
X01150000Y00607944D02*
X01149999Y00607944D01*
X01149999Y00623942D02*
X01150000Y00623942D01*
X01149999Y00639941D02*
X01150000Y00639941D01*
X01132187Y00607944D02*
X01086516Y00607944D01*
X01099343Y00623942D02*
X01112618Y00623942D01*
X01052757Y00591945D02*
X01247243Y00591945D01*
X01263242Y00575947D02*
X01036758Y00575947D01*
X01020759Y00559948D02*
X01279240Y00559948D01*
X01295239Y00543950D02*
X01004761Y00543950D01*
X01057229Y00319970D02*
X00911541Y00319970D01*
X00924432Y00303972D02*
X01037567Y00303972D01*
X01030338Y00287973D02*
X00930716Y00287973D01*
X00930716Y00271975D02*
X01029283Y00271975D01*
X01029283Y00255976D02*
X00930716Y00255976D01*
X00930716Y00239978D02*
X01029283Y00239978D01*
X01029283Y00223979D02*
X00930716Y00223979D01*
X00929383Y00207981D02*
X01031578Y00207981D01*
X01040648Y00191982D02*
X00922756Y00191982D01*
X00907495Y00175984D02*
X01065173Y00175984D01*
X01017177Y00127988D02*
X00282823Y00127988D01*
X00388909Y00159985D02*
X00411091Y00159985D01*
X00488909Y00159985D02*
X00511091Y00159985D01*
X00332155Y00367966D02*
X00118000Y00367966D01*
X00118000Y00383965D02*
X00348153Y00383965D01*
X00364152Y00399963D02*
X00118000Y00399963D01*
X00118000Y00415962D02*
X00380150Y00415962D01*
X00396149Y00431960D02*
X00118000Y00431960D01*
X00118000Y00447959D02*
X00412148Y00447959D01*
X00428146Y00463957D02*
X00118000Y00463957D01*
X00118000Y00479956D02*
X00434233Y00479956D01*
X00373958Y00495954D02*
X00118000Y00495954D01*
X00118000Y00511953D02*
X00354062Y00511953D01*
X00345223Y00527951D02*
X00118000Y00527951D01*
X00118000Y00543950D02*
X00341075Y00543950D01*
X00341075Y00559948D02*
X00118000Y00559948D01*
X00118000Y00575947D02*
X00346838Y00575947D01*
X00357960Y00591945D02*
X00118000Y00591945D01*
X00118000Y00607944D02*
X00383370Y00607944D01*
X00364673Y00639941D02*
X00424248Y00639941D01*
X00440246Y00623942D02*
X00118000Y00623942D01*
X00118000Y00639941D02*
X00338476Y00639941D01*
X00310075Y00655939D02*
X00118000Y00655939D01*
X00118000Y00671938D02*
X00297714Y00671938D01*
X00291087Y00687937D02*
X00118000Y00687937D01*
X00118000Y00703935D02*
X00291075Y00703935D01*
X00294347Y00719934D02*
X00118000Y00719934D01*
X00118000Y00735932D02*
X00301947Y00735932D01*
X00318852Y00751931D02*
X00118000Y00751931D01*
X00118000Y00767929D02*
X00346260Y00767929D01*
X00330261Y00783928D02*
X00118000Y00783928D01*
X00118000Y00799926D02*
X00314263Y00799926D01*
X00298264Y00815925D02*
X00118000Y00815925D01*
X00118000Y00831923D02*
X00282266Y00831923D01*
X00266267Y00847922D02*
X00173344Y00847922D01*
X00171880Y00847176D02*
X00179875Y00851249D01*
X00187133Y00856523D01*
X00193477Y00862867D01*
X00198751Y00870125D01*
X00202824Y00878119D01*
X00205596Y00886652D01*
X00207000Y00895514D01*
X00207000Y00898157D01*
X00151843Y00898157D01*
X00151843Y00843000D01*
X00154486Y00843000D01*
X00163348Y00844404D01*
X00171880Y00847176D01*
X00151843Y00847922D02*
X00148157Y00847922D01*
X00148157Y00863920D02*
X00151843Y00863920D01*
X00151843Y00879919D02*
X00148157Y00879919D01*
X00148157Y00895917D02*
X00151843Y00895917D01*
X00194242Y00863920D02*
X00250269Y00863920D01*
X00234270Y00879919D02*
X00203408Y00879919D01*
X00207000Y00895917D02*
X00218272Y00895917D01*
X00126656Y00847922D02*
X00118000Y00847922D01*
X00393074Y00655939D02*
X00408249Y00655939D01*
X00419780Y00607944D02*
X00456245Y00607944D01*
X00445189Y00591945D02*
X00472243Y00591945D01*
X00459864Y00575947D02*
X00554968Y00575947D01*
X00548871Y00559948D02*
X00475863Y00559948D01*
X00491861Y00543950D02*
X00548254Y00543950D01*
X00552982Y00527951D02*
X00507860Y00527951D01*
X01074141Y00319970D02*
X01075858Y00319970D01*
X01075858Y00303972D02*
X01074141Y00303972D01*
X01074141Y00287973D02*
X01075858Y00287973D01*
X01075858Y00271975D02*
X01074141Y00271975D01*
X01074141Y00255976D02*
X01075858Y00255976D01*
X01120716Y00255976D02*
X01145165Y00255976D01*
X01129167Y00239978D02*
X01120716Y00239978D01*
X01120716Y00271975D02*
X01161164Y00271975D01*
X01179312Y00287973D02*
X01119662Y00287973D01*
X01112433Y00303972D02*
X01475568Y00303972D01*
X01488459Y00319970D02*
X01092771Y00319970D01*
M02*
