G75*
%MOIN*%
%OFA0B0*%
%FSLAX26Y26*%
%IPPOS*%
%LPD*%
%AMOC8*
5,1,8,0,0,1.08239X$1,22.5*
%
%ADD10C,0.065000*%
%ADD11C,0.078000*%
%ADD12C,0.055118*%
%ADD13C,0.074000*%
%ADD14C,0.055433*%
%ADD15C,0.060000*%
%ADD16C,0.074000*%
D10*
X00401575Y00550000D03*
X00351575Y00700000D03*
X00548425Y00700000D03*
X00598425Y00550000D03*
X01650000Y00701575D03*
X01650000Y00898425D03*
D11*
X01200000Y01450000D03*
X00800000Y01450000D03*
X00550000Y01450000D03*
X00150000Y01450000D03*
X00150000Y00900000D03*
X00550000Y00900000D03*
D12*
X00850000Y00950000D03*
X00950000Y00950000D03*
X01050000Y00950000D03*
X01150000Y00950000D03*
X01150000Y00650000D03*
X01050000Y00650000D03*
X00950000Y00650000D03*
X00850000Y00650000D03*
D13*
X00250000Y00287000D02*
X00250000Y00213000D01*
X00350000Y00213000D02*
X00350000Y00287000D01*
X00450000Y00287000D02*
X00450000Y00213000D01*
X00550000Y00213000D02*
X00550000Y00287000D01*
D14*
X00875000Y00277717D02*
X00875000Y00222283D01*
X01075000Y00222283D02*
X01075000Y00277717D01*
X01525000Y00277717D02*
X01525000Y00222283D01*
X01725000Y00222283D02*
X01725000Y00277717D01*
D15*
X01600000Y01170000D02*
X01600000Y01230000D01*
X01500000Y01230000D02*
X01500000Y01170000D01*
X01400000Y01170000D02*
X01400000Y01230000D01*
X00550000Y01230000D02*
X00550000Y01170000D01*
X00450000Y01170000D02*
X00450000Y01230000D01*
X00350000Y01230000D02*
X00350000Y01170000D01*
D16*
X00850000Y01200000D03*
X01150000Y01200000D03*
X01400000Y00950000D03*
X01400000Y00650000D03*
M02*
